<?xml version="1.0" encoding="UTF-8"?>
<svg version="1.1" xmlns="http://www.w3.org/2000/svg" width="180" height="180">
<path d="M0 0 C59.4 0 118.8 0 180 0 C180 59.4 180 118.8 180 180 C120.6 180 61.2 180 0 180 C0 120.6 0 61.2 0 0 Z " fill="#969477" transform="translate(0,0)"/>
<path d="M0 0 C1.34094727 -0.0299707 1.34094727 -0.0299707 2.70898438 -0.06054688 C8.9284157 -0.05599718 13.18003608 1.14850051 18.4375 4.4375 C20.09265625 5.46617188 20.09265625 5.46617188 21.78125 6.515625 C41.27192897 19.92752786 41.27192897 19.92752786 43.125 28.6875 C43.228125 29.595 43.33125 30.5025 43.4375 31.4375 C44.0975 31.4375 44.7575 31.4375 45.4375 31.4375 C53.13546301 47.31921981 53.74353432 67.76139213 48.4375 84.4375 C47.7775 84.4375 47.1175 84.4375 46.4375 84.4375 C46.31568359 85.95537109 46.31568359 85.95537109 46.19140625 87.50390625 C45.58384119 91.70614322 43.72403832 94.89681229 41.375 98.375 C40.97015381 98.98472656 40.56530762 99.59445313 40.14819336 100.22265625 C34.31972621 108.78488969 27.69756033 114.73088287 18.4375 119.4375 C17.65246094 119.85257812 16.86742188 120.26765625 16.05859375 120.6953125 C5.93468334 125.22651497 -8.0980866 125.33034691 -18.625 121.9375 C-35.65321399 114.28946023 -47.30390217 98.29652509 -53.8515625 81.171875 C-55.27395123 75.7011491 -55.4002996 70.06585372 -55.5625 64.4375 C-58.74403263 66.02826632 -58.92987778 68.7820393 -60.0625 72.0625 C-60.4853125 73.27164063 -60.908125 74.48078125 -61.34375 75.7265625 C-62.50953895 79.27624041 -63.54268848 82.84368419 -64.5625 86.4375 C-65.25802023 88.58752056 -65.96569968 90.73365904 -66.6875 92.875 C-67.04070312 93.92558594 -67.39390625 94.97617188 -67.7578125 96.05859375 C-68.02335937 96.84363281 -68.28890625 97.62867187 -68.5625 98.4375 C-69.5525 98.4375 -70.5425 98.4375 -71.5625 98.4375 C-71.73265625 97.67566406 -71.9028125 96.91382812 -72.078125 96.12890625 C-73.45448103 90.26475106 -75.08352157 84.95872904 -77.6484375 79.515625 C-80.31734428 73.44785403 -80.98670687 66.98335872 -81.5625 60.4375 C-82.2225 60.4375 -82.8825 60.4375 -83.5625 60.4375 C-85.467747 55.33415983 -86.98839023 50.97407294 -86.5625 45.4375 C-87.2225 45.4375 -87.8825 45.4375 -88.5625 45.4375 C-89.37944231 42.73043656 -90.19116494 40.02198604 -91 37.3125 C-91.23009766 36.55195312 -91.46019531 35.79140625 -91.69726562 35.0078125 C-92.93886362 30.83316417 -93.96125379 26.76370837 -94.5625 22.4375 C-92.2525 22.4375 -89.9425 22.4375 -87.5625 22.4375 C-83.88415561 31.92375659 -80.37225351 41.56687356 -78.125 51.5 C-76.75035324 57.37999194 -74.41009785 62.66689863 -71.8671875 68.11328125 C-70.50286817 71.58943619 -69.94736316 74.73436546 -69.5625 78.4375 C-68.5725 78.4375 -67.5825 78.4375 -66.5625 78.4375 C-66.29695313 77.14972656 -66.03140625 75.86195312 -65.7578125 74.53515625 C-64.64441364 69.52486139 -63.10578174 64.72419215 -61.4375 59.875 C-61.16035156 59.05708984 -60.88320313 58.23917969 -60.59765625 57.39648438 C-59.92344863 55.40873432 -59.24357796 53.42290651 -58.5625 51.4375 C-57.9025 51.4375 -57.2425 51.4375 -56.5625 51.4375 C-54.5825 55.7275 -52.6025 60.0175 -50.5625 64.4375 C-51.81537188 57.46255653 -53.56714151 51.02274708 -56 44.375 C-56.603512 42.69684727 -57.20638089 41.01846312 -57.80859375 39.33984375 C-58.24534424 38.12337158 -58.24534424 38.12337158 -58.69091797 36.88232422 C-59.56647421 34.42635216 -60.43614139 31.96919016 -61.28515625 29.50390625 C-61.65459351 28.43765015 -61.65459351 28.43765015 -62.03149414 27.34985352 C-62.5625 25.4375 -62.5625 25.4375 -62.5625 22.4375 C-59.9225 22.4375 -57.2825 22.4375 -54.5625 22.4375 C-52.68534603 27.08569079 -51.22270169 31.61978654 -50.0625 36.5 C-48.95768757 41.07380899 -47.54474119 45.15585903 -45.5625 49.4375 C-43.09404963 55.11401133 -41.10092104 60.24565803 -40.5625 66.4375 C-39.5725 66.7675 -38.5825 67.0975 -37.5625 67.4375 C-37.52382812 66.49003906 -37.52382812 66.49003906 -37.484375 65.5234375 C-36.94195006 56.96791682 -35.37428047 47.97164037 -31.45703125 40.26171875 C-30.2428334 37.78560349 -30.25048612 35.31973806 -29.98046875 32.609375 C-29.26258149 28.87904496 -27.43376359 25.71003539 -25.5625 22.4375 C-23.9125 22.4375 -22.2625 22.4375 -20.5625 22.4375 C-20.5625 25.4075 -20.5625 28.3775 -20.5625 31.4375 C-20.17320313 30.880625 -19.78390625 30.32375 -19.3828125 29.75 C-14.60512561 23.23297088 -8.89580942 17.10415471 -1.5625 13.4375 C9.48078363 12.00596323 18.63260708 19.1766088 27.078125 25.53515625 C29.75082105 27.69012807 32.13409544 29.89581221 34.4375 32.4375 C33.28982205 24.40375435 28.55447016 20.26873758 22.4375 15.4375 C21.4475 14.9425 21.4475 14.9425 20.4375 14.4375 C20.4375 13.7775 20.4375 13.1175 20.4375 12.4375 C18.50412828 11.96263677 16.57066512 11.48814244 14.63671875 11.015625 C12.79619419 10.53179261 10.98586198 9.93500992 9.1875 9.3125 C0.27933245 7.23392757 -10.14561545 7.4828357 -18.3125 11.9375 C-19.055 12.4325 -19.7975 12.9275 -20.5625 13.4375 C-21.325625 13.685 -22.08875 13.9325 -22.875 14.1875 C-32.95637052 18.87650954 -39.8119873 29.28905388 -43.5625 39.4375 C-44.5525 39.1075 -45.5425 38.7775 -46.5625 38.4375 C-47.82230012 34.65809964 -48.07547082 32.61026368 -46.45703125 28.91015625 C-38.63049382 15.95268216 -27.55220641 5.7137215 -13.05566406 1.04833984 C-8.71235026 -0.01579756 -4.45162678 -0.03545829 0 0 Z " fill="#D6D6C8" transform="translate(103.5625,27.5625)"/>
<path d="M0 0 C59.4 0 118.8 0 180 0 C180 8.91 180 17.82 180 27 C120.6 27 61.2 27 0 27 C0 18.09 0 9.18 0 0 Z " fill="#FDFDFD" transform="translate(0,153)"/>
<path d="M0 0 C20.13 0 40.26 0 61 0 C61 41.58 61 83.16 61 126 C38.56 126 16.12 126 -7 126 C-5.515 125.505 -5.515 125.505 -4 125 C-4 124.34 -4 123.68 -4 123 C-3.10539062 122.59910156 -2.21078125 122.19820313 -1.2890625 121.78515625 C13.79911668 114.79271578 24.06579677 104.82454194 30 89 C30.495 87.515 30.495 87.515 31 86 C31.66 86 32.32 86 33 86 C33.144375 84.948125 33.28875 83.89625 33.4375 82.8125 C33.73846684 80.77261363 34.06154648 78.73222689 34.5234375 76.72265625 C36.73923908 64.06352754 35.75006287 47.50012574 30 36 C30 35.01 30 34.02 30 33 C29.34 33 28.68 33 28 33 C27.690625 32.05125 27.38125 31.1025 27.0625 30.125 C22.94168682 20.61246863 14.37353279 14.52568154 6 9 C3.78648365 7.42457485 1.95860208 5.90705992 0 4 C0 2.68 0 1.36 0 0 Z " fill="#949174" transform="translate(119,26)"/>
<path d="M0 0 C59.4 0 118.8 0 180 0 C180 8.25 180 16.5 180 25 C120.6 25 61.2 25 0 25 C0 16.75 0 8.5 0 0 Z " fill="#FEFEFE" transform="translate(0,0)"/>
<path d="M0 0 C1.34094727 -0.0299707 1.34094727 -0.0299707 2.70898438 -0.06054688 C8.9284157 -0.05599718 13.18003608 1.14850051 18.4375 4.4375 C20.09265625 5.46617188 20.09265625 5.46617188 21.78125 6.515625 C41.27192897 19.92752786 41.27192897 19.92752786 43.125 28.6875 C43.228125 29.595 43.33125 30.5025 43.4375 31.4375 C44.0975 31.4375 44.7575 31.4375 45.4375 31.4375 C53.13546301 47.31921981 53.74353432 67.76139213 48.4375 84.4375 C47.7775 84.4375 47.1175 84.4375 46.4375 84.4375 C46.31568359 85.95537109 46.31568359 85.95537109 46.19140625 87.50390625 C45.58384119 91.70614322 43.72403832 94.89681229 41.375 98.375 C40.97015381 98.98472656 40.56530762 99.59445313 40.14819336 100.22265625 C34.31972621 108.78488969 27.69756033 114.73088287 18.4375 119.4375 C17.65246094 119.85257812 16.86742188 120.26765625 16.05859375 120.6953125 C5.93468334 125.22651497 -8.0980866 125.33034691 -18.625 121.9375 C-35.65321399 114.28946023 -47.30390217 98.29652509 -53.8515625 81.171875 C-55.27395123 75.7011491 -55.4002996 70.06585372 -55.5625 64.4375 C-58.74403263 66.02826632 -58.92987778 68.7820393 -60.0625 72.0625 C-60.4853125 73.27164063 -60.908125 74.48078125 -61.34375 75.7265625 C-62.50953895 79.27624041 -63.54268848 82.84368419 -64.5625 86.4375 C-65.25802023 88.58752056 -65.96569968 90.73365904 -66.6875 92.875 C-67.04070312 93.92558594 -67.39390625 94.97617188 -67.7578125 96.05859375 C-68.02335937 96.84363281 -68.28890625 97.62867187 -68.5625 98.4375 C-69.5525 98.4375 -70.5425 98.4375 -71.5625 98.4375 C-71.73265625 97.67566406 -71.9028125 96.91382812 -72.078125 96.12890625 C-73.45448103 90.26475106 -75.08352157 84.95872904 -77.6484375 79.515625 C-80.31734428 73.44785403 -80.98670687 66.98335872 -81.5625 60.4375 C-82.2225 60.4375 -82.8825 60.4375 -83.5625 60.4375 C-85.467747 55.33415983 -86.98839023 50.97407294 -86.5625 45.4375 C-87.2225 45.4375 -87.8825 45.4375 -88.5625 45.4375 C-89.37944231 42.73043656 -90.19116494 40.02198604 -91 37.3125 C-91.23009766 36.55195312 -91.46019531 35.79140625 -91.69726562 35.0078125 C-92.93886362 30.83316417 -93.96125379 26.76370837 -94.5625 22.4375 C-92.2525 22.4375 -89.9425 22.4375 -87.5625 22.4375 C-83.88415561 31.92375659 -80.37225351 41.56687356 -78.125 51.5 C-76.75035324 57.37999194 -74.41009785 62.66689863 -71.8671875 68.11328125 C-70.50286817 71.58943619 -69.94736316 74.73436546 -69.5625 78.4375 C-68.5725 78.4375 -67.5825 78.4375 -66.5625 78.4375 C-66.29695313 77.14972656 -66.03140625 75.86195312 -65.7578125 74.53515625 C-64.64441364 69.52486139 -63.10578174 64.72419215 -61.4375 59.875 C-61.16035156 59.05708984 -60.88320313 58.23917969 -60.59765625 57.39648438 C-59.92344863 55.40873432 -59.24357796 53.42290651 -58.5625 51.4375 C-57.9025 51.4375 -57.2425 51.4375 -56.5625 51.4375 C-56.32015625 52.11554688 -56.0778125 52.79359375 -55.828125 53.4921875 C-54.13934678 58.18179472 -52.41618889 62.8356873 -50.5 67.4375 C-48.07571915 73.42633608 -45.5625 79.92273059 -45.5625 86.4375 C-44.9025 86.4375 -44.2425 86.4375 -43.5625 86.4375 C-43.23378906 87.11554688 -42.90507813 87.79359375 -42.56640625 88.4921875 C-37.31912326 98.75922901 -30.55732025 108.14683844 -19.5625 112.4375 C-18.799375 112.953125 -18.03625 113.46875 -17.25 114 C-11.24647359 117.21118854 -3.72336592 116.57051405 2.9375 116.5 C3.75992188 116.49548828 4.58234375 116.49097656 5.4296875 116.48632812 C7.43232396 116.47468489 9.43492227 116.45675556 11.4375 116.4375 C11.4375 115.7775 11.4375 115.1175 11.4375 114.4375 C12.7575 114.4375 14.0775 114.4375 15.4375 114.4375 C15.4375 113.7775 15.4375 113.1175 15.4375 112.4375 C17.37890625 111.17578125 17.37890625 111.17578125 20 109.75 C24.95718402 106.87231267 28.63531843 103.68929688 32.4375 99.4375 C33.30375 98.550625 34.17 97.66375 35.0625 96.75 C42.79354844 87.23290076 44.78518793 74.39902072 44.6875 62.5625 C44.69523438 61.63308594 44.70296875 60.70367187 44.7109375 59.74609375 C44.68783159 51.46262468 44.17349747 43.44677625 39.4375 36.4375 C38.81875 34.7978125 38.81875 34.7978125 38.1875 33.125 C35.10380747 25.73698665 27.6142916 18.0258958 20.4375 14.4375 C20.4375 13.7775 20.4375 13.1175 20.4375 12.4375 C18.50412828 11.96263677 16.57066512 11.48814244 14.63671875 11.015625 C12.79619419 10.53179261 10.98586198 9.93500992 9.1875 9.3125 C0.27933245 7.23392757 -10.14561545 7.4828357 -18.3125 11.9375 C-19.055 12.4325 -19.7975 12.9275 -20.5625 13.4375 C-21.325625 13.685 -22.08875 13.9325 -22.875 14.1875 C-32.95637052 18.87650954 -39.8119873 29.28905388 -43.5625 39.4375 C-44.5525 39.1075 -45.5425 38.7775 -46.5625 38.4375 C-47.82230012 34.65809964 -48.07547082 32.61026368 -46.45703125 28.91015625 C-38.63049382 15.95268216 -27.55220641 5.7137215 -13.05566406 1.04833984 C-8.71235026 -0.01579756 -4.45162678 -0.03545829 0 0 Z " fill="#F2F3EF" transform="translate(103.5625,27.5625)"/>
<path d="M0 0 C12.81985545 4.68278824 23.45385412 12.88078398 30 25 C32.13391391 29.63799656 32.17075438 32.96274592 32 38 C30.84250437 35.80958226 29.87825459 33.66654471 29.02734375 31.3359375 C24.75809076 19.73703512 17.6171451 12.17450992 7 6 C6.67 6.33 6.34 6.66 6 7 C6.556875 7.32871094 7.11375 7.65742187 7.6875 7.99609375 C17.06308268 13.83999579 24.22752168 21.46986485 28 32 C28.60775265 35.0569051 28.84872704 37.87369218 29 41 C27 40 27 40 26.17578125 37.8828125 C25.89089844 36.97273438 25.60601562 36.06265625 25.3125 35.125 C21.38415692 24.0043229 15.48753235 15.75442683 5.1171875 9.9453125 C1.19243926 8.09733687 -2.71269714 7.43747988 -7 7 C-7 6.34 -7 5.68 -7 5 C-2.545 4.505 -2.545 4.505 2 4 C-3.86800551 3.25500243 -8.93124697 2.62707593 -14.01953125 6.00390625 C-15.75484184 7.62742524 -17.44396053 9.30226911 -19.07421875 11.03125 C-19.70972656 11.6809375 -20.34523437 12.330625 -21 13 C-21.66 13 -22.32 13 -23 13 C-23.226875 13.53625 -23.45375 14.0725 -23.6875 14.625 C-25 17 -25 17 -27.4375 19.75 C-33.95442892 27.37864032 -35.34870215 38.3650142 -35.25 48.0625 C-35.25773437 48.82626953 -35.26546875 49.59003906 -35.2734375 50.37695312 C-35.23449973 61.75651638 -30.57395003 71.92038576 -22.9140625 80.23828125 C-19.90846487 83.00465785 -16.58360301 85.06392357 -13 87 C-15.36937583 87.85968503 -16.51224172 88.21723688 -18.859375 87.171875 C-27.69627372 80.5259429 -35.62601324 70.36135532 -37.45703125 59.21875 C-37.71080805 56.80956228 -37.89895946 54.41992094 -38 52 C-38.02717692 54.06242617 -38.0464758 56.12495703 -38.0625 58.1875 C-38.07410156 59.33605469 -38.08570313 60.48460937 -38.09765625 61.66796875 C-38.01192832 64.59300586 -37.67849023 67.16316291 -37 70 C-36.34 70 -35.68 70 -35 70 C-33.484375 71.94140625 -33.484375 71.94140625 -31.75 74.5625 C-25.81129957 83.21953341 -20.78359843 89.83155901 -10 92 C1.5771236 93.48150526 8.92936283 90.75785033 18 84 C27.19561493 76.01809201 30.08308906 66.88297636 31.5078125 55.078125 C32 52 32 52 33.02734375 48.98828125 C36.32591095 38.85412901 33.46224692 29.27606481 29 20 C28.01 18.515 28.01 18.515 27 17 C26.3671875 14.73828125 26.3671875 14.73828125 25.875 12.3125 C25.70742187 11.50425781 25.53984375 10.69601563 25.3671875 9.86328125 C25.24601562 9.24839844 25.12484375 8.63351563 25 8 C29.34780191 11.57140871 30.92354995 15.93758047 33 21 C33.56236051 22.22923049 34.12484689 23.45840341 34.6875 24.6875 C40.0023591 38.10119201 38.09896987 55.27303447 33.484375 68.58984375 C30.83805942 74.6694056 27.90102451 79.44090743 23 84 C22.46246094 84.56847656 21.92492187 85.13695312 21.37109375 85.72265625 C17.55181857 89.74699319 13.9930512 92.55242588 9 95 C8.34 95 7.68 95 7 95 C7 95.66 7 96.32 7 97 C5.68 97 4.36 97 3 97 C3 97.66 3 98.32 3 99 C-3.93172149 102.46586075 -16.54637512 100.04146112 -23.86328125 98.73046875 C-26.31094315 97.89369951 -27.21188387 96.82488973 -29 95 C-30.665922 94.33147467 -32.33263943 93.66492929 -34 93 C-42.06604172 87.1856095 -49.65902818 78.88410325 -52 69 C-52.66 69 -53.32 69 -54 69 C-54.17128418 68.42556152 -54.34256836 67.85112305 -54.51904297 67.25927734 C-55.30337554 64.63088938 -56.08917579 62.00294237 -56.875 59.375 C-57.14441406 58.47136719 -57.41382813 57.56773438 -57.69140625 56.63671875 C-59.0592805 52.066017 -60.45504108 47.51487996 -62 43 C-61.34 43.33 -60.68 43.66 -60 44 C-59.67 44.99 -59.34 45.98 -59 47 C-60.2018465 40.04003929 -62.01224688 33.56446554 -64.4375 26.9375 C-65.041012 25.25934727 -65.64388089 23.58096312 -66.24609375 21.90234375 C-66.68284424 20.68587158 -66.68284424 20.68587158 -67.12841797 19.44482422 C-68.00397421 16.98885216 -68.87364139 14.53169016 -69.72265625 12.06640625 C-69.96894775 11.35556885 -70.21523926 10.64473145 -70.46899414 9.91235352 C-71 8 -71 8 -71 5 C-68.36 5 -65.72 5 -63 5 C-61.12284603 9.64819079 -59.66020169 14.18228654 -58.5 19.0625 C-57.39518757 23.63630899 -55.98224119 27.71835903 -54 32 C-51.53154963 37.67651133 -49.53842104 42.80815803 -49 49 C-47.515 49.495 -47.515 49.495 -46 50 C-45.97421875 49.36835937 -45.9484375 48.73671875 -45.921875 48.0859375 C-45.37945006 39.53041682 -43.81178047 30.53414037 -39.89453125 22.82421875 C-38.6803334 20.34810349 -38.68798612 17.88223806 -38.41796875 15.171875 C-37.70008149 11.44154496 -35.87126359 8.27253539 -34 5 C-32.35 5 -30.7 5 -29 5 C-29 7.97 -29 10.94 -29 14 C-24.72527471 12.93457021 -24.72527471 12.93457021 -22.25 9.8125 C-15.93090994 2.18546861 -10.26087577 -2.14914895 0 0 Z " fill="#959577" transform="translate(112,45)"/>
<path d="M0 0 C5.88942299 3.68825115 11.83814006 8.86309167 13.70703125 15.8046875 C14.89315097 24.69267796 14.83011343 32.80066727 9.3828125 40.1953125 C5.93460275 44.32428469 3.17439881 47.43854171 -2.296875 48.40625 C-8.29503377 48.635479 -11.66309026 47.63826096 -16.2421875 43.7265625 C-23.89685453 36.20797844 -23.89685453 36.20797844 -24.11352539 31.56982422 C-24.10828857 30.5748291 -24.10305176 29.57983398 -24.09765625 28.5546875 C-24.09443359 27.47832031 -24.09121094 26.40195313 -24.08789062 25.29296875 C-24.07951172 24.16503906 -24.07113281 23.03710938 -24.0625 21.875 C-24.05798828 20.73933594 -24.05347656 19.60367188 -24.04882812 18.43359375 C-24.03701615 15.62234362 -24.02054507 12.8111977 -24 10 C-23.67 10 -23.34 10 -23 10 C-22.98541748 10.56920166 -22.97083496 11.13840332 -22.95581055 11.72485352 C-22.88070835 14.33803828 -22.78425811 16.95003099 -22.6875 19.5625 C-22.65366211 20.90538086 -22.65366211 20.90538086 -22.61914062 22.27539062 C-22.35215656 28.90144958 -21.63831412 34.0847935 -17.02734375 39.1796875 C-16.33769531 39.73914063 -15.64804688 40.29859375 -14.9375 40.875 C-13.89916016 41.73738281 -13.89916016 41.73738281 -12.83984375 42.6171875 C-9.70513462 44.97321092 -7.17985205 45.47031549 -3.2265625 45.3984375 C1.1127495 44.62192904 4.04866629 42.16680719 7 39 C10.99661948 33.10610892 11.93544748 26.98767995 11 20 C9.41074282 13.46003522 6.35572168 9.08180055 1.3125 4.625 C-3.08330965 2.46856508 -6.36033552 2.48762318 -11 4 C-14.00333267 6.33336666 -14.00333267 6.33336666 -16 9 C-16.33 9.33 -16.66 9.66 -17 10 C-17.89876393 17.66000868 -18.7026176 26.94302096 -15.68359375 34.13671875 C-12.86047766 37.55351026 -10.59231188 38.8059668 -6.375 40.1875 C-2.65460265 39.98081126 -0.99099976 39.1364284 2 37 C2.66 37 3.32 37 4 37 C4 36.34 4 35.68 4 35 C2.96875 35.515625 1.9375 36.03125 0.875 36.5625 C-2.82184839 38.11711029 -5.10596235 38.32562984 -9 37 C-11.85765319 35.08376994 -14.43365959 33.13268081 -16 30 C-17.33460144 13.33654776 -17.33460144 13.33654776 -12.47265625 7.2421875 C-11 6 -11 6 -8.3125 5.125 C-2.18978612 6.74232065 3.76126665 10.24117666 8 15 C10.98543755 20.18523364 10.91035411 26.53576657 9.41796875 32.21484375 C6.97808221 38.01932269 2.69356624 41.4684484 -3 44 C-7.14953159 44.44459267 -9.02375413 43.71483789 -12.36328125 41.26953125 C-20.52853754 34.32841227 -20.52853754 34.32841227 -21.30639648 28.83691406 C-21.37689743 26.3073934 -21.42090061 23.78048426 -21.4375 21.25 C-21.47037109 20.38117188 -21.50324219 19.51234375 -21.53710938 18.6171875 C-21.5905298 12.14845965 -20.14126944 7.99047079 -16 3 C-11.50678146 -1.45748718 -5.92304279 -1.3454989 0 0 Z " fill="#F2F2ED" transform="translate(115,71)"/>
<path d="M0 0 C1.22589844 0.01353516 1.22589844 0.01353516 2.4765625 0.02734375 C3.41628906 0.04474609 3.41628906 0.04474609 4.375 0.0625 C4.375 0.7225 4.375 1.3825 4.375 2.0625 C5.22964844 2.14628906 6.08429688 2.23007812 6.96484375 2.31640625 C14.01330689 3.85850987 21.04810424 8.91188314 25.328125 14.70703125 C27.56462153 18.9936496 28.60798861 22.19562686 28.375 27.0625 C26.19174759 24.87924759 25.43315786 23.11841874 24.1875 20.3125 C21.7014823 15.25298011 18.97408945 12.2480165 14.375 9.0625 C13.84132812 8.65 13.30765625 8.2375 12.7578125 7.8125 C8.42654653 4.82827847 4.2308085 4.34378471 -0.97265625 4.55078125 C-6.79048576 5.67321964 -9.49509446 9.47981642 -12.7890625 14.09375 C-15.43048832 18.86875645 -15.1741339 23.66678047 -15.0625 29 C-15.07313477 30.42602539 -15.07313477 30.42602539 -15.08398438 31.88085938 C-15.02200575 38.79862734 -14.38474273 44.86876547 -9.6875 50.3046875 C-9.006875 50.84351563 -8.32625 51.38234375 -7.625 51.9375 C-6.6040625 52.76894531 -6.6040625 52.76894531 -5.5625 53.6171875 C-0.41988902 57.4534094 3.07985217 57.82107024 9.375 57.0625 C15.21059145 54.48137301 18.41068878 49.54695854 21.375 44.0625 C23.60906011 37.48071813 23.54144846 28.38517682 20.66015625 22.01953125 C17.09310024 16.58763137 12.72357884 11.81447614 6.2265625 10.35546875 C1.63846394 10.20253213 -1.61090262 10.52440751 -5.6875 12.6875 C-10.52779242 18.62076168 -11.12226892 23.67288756 -11.0625 31.0625 C-11.08248047 31.9390625 -11.10246094 32.815625 -11.12304688 33.71875 C-11.11881176 39.34297733 -10.41656791 42.6434543 -6.625 47.0625 C-4.72936278 48.97342748 -4.72936278 48.97342748 -2.6875 50.4375 C-2.03910156 50.94023438 -1.39070313 51.44296875 -0.72265625 51.9609375 C1.9081586 53.34248273 3.4347284 53.43852857 6.375 53.0625 C11.11771994 50.91173166 14.64661287 48.21026153 17.4375 43.8125 C18.91428048 37.9053781 19.1324101 32.68818836 17.4375 26.8125 C14.07489841 22.32903121 9.35175825 19.55087913 4.375 17.0625 C2.37539988 17.022508 0.37452758 17.01903201 -1.625 17.0625 C-5.45150469 21.84563086 -6.08349066 26.14948427 -6.1875 32.1875 C-6.21392578 32.88037109 -6.24035156 33.57324219 -6.26757812 34.28710938 C-6.24102065 38.23658593 -5.76170653 39.89765452 -3.21484375 42.96875 C-0.16696631 45.49331015 -0.16696631 45.49331015 3.375 47.0625 C5.85551222 46.79990217 5.85551222 46.79990217 8.375 46.0625 C9.7671875 45.7840625 9.7671875 45.7840625 11.1875 45.5 C11.909375 45.355625 12.63125 45.21125 13.375 45.0625 C13.375 45.7225 13.375 46.3825 13.375 47.0625 C9.60351594 49.60247906 7.44929381 51.00494855 2.875 51.25 C-2.21807806 49.52199137 -6.19598026 45.92053949 -8.625 41.0625 C-8.94427202 37.65315978 -8.94933113 34.23495187 -9 30.8125 C-9.03738281 29.87019531 -9.07476562 28.92789063 -9.11328125 27.95703125 C-9.17066107 23.4112747 -9.19646657 20.10581114 -6.25390625 16.4765625 C-2.81243661 13.31634224 -0.37182054 12.4198042 4.125 11.5 C9.87778185 12.49567378 14.39401613 16.67984198 18.0703125 21.1015625 C21.78914651 26.69094775 22.15972256 33.56618922 21.375 40.0625 C19.55701135 46.83369125 16.09916443 51.11480039 10.375 55.0625 C7.0567103 56.72164485 3.93235401 56.81874022 0.375 56.0625 C-2.94118826 54.06743835 -5.78319989 51.68009497 -8.625 49.0625 C-9.46611328 48.29873047 -9.46611328 48.29873047 -10.32421875 47.51953125 C-13.97271949 43.43277217 -12.8496288 36.93113988 -12.875 31.8125 C-12.895625 30.78769531 -12.91625 29.76289062 -12.9375 28.70703125 C-12.97350638 21.71279199 -12.39494888 16.81699305 -8.15234375 11.06640625 C-4.76533905 7.99563295 -2.25075643 6.64168103 2.375 6.4375 C7.38605506 6.75686921 10.29488384 8.182418 14.375 11.0625 C15.220625 11.59875 16.06625 12.135 16.9375 12.6875 C22.28760225 17.90042014 26.42756704 24.9476279 26.75 32.5 C26.67698807 40.81119151 22.72758905 49.76533642 17.375 56.0625 C12.26397413 60.10872881 7.86304249 60.8178179 1.375 60.56640625 C-5.52032843 59.40820655 -10.00942281 55.31101195 -14.0625 49.8125 C-19.58083907 40.57960028 -19.90901602 28.57143438 -18.625 18.0625 C-16.60930636 10.989575 -12.24841711 5.69438261 -6.625 1.0625 C-4.21954362 -0.14022819 -2.67503047 -0.03821472 0 0 Z " fill="#9B9B7F" transform="translate(105.625,60.9375)"/>
<path d="M0 0 C13.25292294 4.9951907 27.82206083 14.63055358 33.9375 27.75 C39.7822597 41.61892131 36.32535999 54.23608661 32 68 C31.67 68 31.34 68 31 68 C31 65.69 31 63.38 31 61 C30.34 61 29.68 61 29 61 C28.98582031 61.60585937 28.97164062 62.21171875 28.95703125 62.8359375 C28.51125514 70.66713935 26.61005006 77.34097639 20.984375 83.04296875 C15.2642459 87.7330746 8.9294234 91.72425099 1.4375 92.25 C0.633125 92.1675 -0.17125 92.085 -1 92 C1.34114382 89.65885618 2.99017957 89.2454583 6.125 88.25 C12.68875607 85.93287351 17.86696498 82.93292315 22 77.25 C23.13537949 75.10576523 23.13537949 75.10576523 23 73 C22.72027344 73.53109375 22.44054687 74.0621875 22.15234375 74.609375 C19.16455491 79.87403186 16.53531899 82.60290579 11 85 C10.40445313 85.29777344 9.80890625 85.59554687 9.1953125 85.90234375 C3.34715636 88.53522732 -2.68974527 89.00730979 -9 88 C-15.36832545 85.30874172 -21.39631506 79.90953929 -25 74 C-24.67 73.01 -24.34 72.02 -24 71 C-21.86732729 73.13267271 -19.76851889 75.25720124 -17.75 77.5 C-12.01350577 82.71499475 -6.68340621 84.75732643 1.1171875 84.453125 C7.18635693 83.49916341 12.91780667 81.25858539 17.12109375 76.69921875 C19.07902245 73.88647711 20.62436091 71.07984567 22.125 68 C22.62257812 66.989375 23.12015625 65.97875 23.6328125 64.9375 C24.08398438 63.968125 24.53515625 62.99875 25 62 C25.37640625 61.20207031 25.7528125 60.40414062 26.140625 59.58203125 C27.24498877 56.26392009 27.42947959 53.17428071 27.625 49.6875 C27.69976562 48.43324219 27.77453125 47.17898437 27.8515625 45.88671875 C27.90054688 44.93410156 27.94953125 43.98148438 28 43 C28.99 43.495 28.99 43.495 30 44 C29.38544384 32.93798907 24.00408039 24.46680133 16 17 C12.76632995 14.49978721 9.44632853 12.19632822 6 10 C9 9 9 9 10.98046875 9.93359375 C21.87970711 17.36050839 28.76510604 25.29531811 33 38 C32.60991637 29.0280764 27.4074134 21.61890107 20.984375 15.59375 C17.25261012 12.5965845 13.20882824 10.25839564 9 8 C7.865625 7.38125 6.73125 6.7625 5.5625 6.125 C0.499919 4.52629021 -3.76922456 3.77458407 -9 5 C-14.18194928 8.1656266 -18.45309675 12.02294184 -22.19140625 16.80078125 C-23.08666016 17.88939453 -23.08666016 17.88939453 -24 19 C-24.66 19 -25.32 19 -26 19 C-25.25368665 12.53195097 -19.52638643 8.49539381 -14.8125 4.6875 C-9.82343812 0.76057723 -6.48192158 -1.05806327 0 0 Z " fill="#DDDDD1" transform="translate(110,41)"/>
<path d="M0 0 C2.64 0 5.28 0 8 0 C9.87715397 4.64819079 11.33979831 9.18228654 12.5 14.0625 C13.60481243 18.63630899 15.01775881 22.71835903 17 27 C19.46845037 32.67651133 21.46157896 37.80815803 22 44 C23.485 44.495 23.485 44.495 25 45 C25.02578125 44.36835937 25.0515625 43.73671875 25.078125 43.0859375 C25.62054994 34.53041682 27.18821953 25.53414037 31.10546875 17.82421875 C32.3196666 15.34810349 32.31201388 12.88223806 32.58203125 10.171875 C33.29991851 6.44154496 35.12873641 3.27253539 37 0 C38.65 0 40.3 0 42 0 C41.17750414 4.63924629 39.86196735 9.10323029 38.5625 13.625 C37.13461169 18.64674242 35.79450983 23.58182924 35 28.75 C34.08911754 34.42753924 32.18210848 44.81789152 28 49 C27.62523502 51.47989015 27.29424021 53.94795193 27 56.4375 C26.13276492 63.73447016 26.13276492 63.73447016 25 66 C24.34 66 23.68 66 23 66 C20.32327057 58.60767065 17.69556359 51.20136134 15.1875 43.75 C14.76855469 42.50734375 14.34960938 41.2646875 13.91796875 39.984375 C13 37 13 37 13 35 C12.34 35 11.68 35 11 35 C10.70867188 34.11441406 10.41734375 33.22882813 10.1171875 32.31640625 C8.23693856 26.63427029 6.35519717 20.95741639 4.33203125 15.32421875 C4.0582666 14.56101318 3.78450195 13.79780762 3.50244141 13.01147461 C2.96588134 11.52251239 2.42529187 10.03499506 1.88037109 8.54907227 C0.80555631 5.56492631 0 3.19811688 0 0 Z " fill="#F2F2EE" transform="translate(41,50)"/>
<path d="M0 0 C12.81985545 4.68278824 23.45385412 12.88078398 30 25 C32.13391391 29.63799656 32.17075438 32.96274592 32 38 C30.84250437 35.80958226 29.87825459 33.66654471 29.02734375 31.3359375 C24.75809076 19.73703512 17.6171451 12.17450992 7 6 C6.67 6.33 6.34 6.66 6 7 C6.556875 7.32871094 7.11375 7.65742187 7.6875 7.99609375 C17.06308268 13.83999579 24.22752168 21.46986485 28 32 C28.60775265 35.0569051 28.84872704 37.87369218 29 41 C27 40 27 40 26.17578125 37.8828125 C25.89089844 36.97273438 25.60601562 36.06265625 25.3125 35.125 C21.38415692 24.0043229 15.48753235 15.75442683 5.1171875 9.9453125 C1.19243926 8.09733687 -2.71269714 7.43747988 -7 7 C-7 6.34 -7 5.68 -7 5 C-2.545 4.505 -2.545 4.505 2 4 C-3.86800551 3.25500243 -8.93124697 2.62707593 -14.01953125 6.00390625 C-15.75484184 7.62742524 -17.44396053 9.30226911 -19.07421875 11.03125 C-19.70972656 11.6809375 -20.34523438 12.330625 -21 13 C-21.66 13 -22.32 13 -23 13 C-23.226875 13.53625 -23.45375 14.0725 -23.6875 14.625 C-25 17 -25 17 -27.4375 19.75 C-33.95442892 27.37864032 -35.34870215 38.3650142 -35.25 48.0625 C-35.25773437 48.82626953 -35.26546875 49.59003906 -35.2734375 50.37695312 C-35.23449973 61.75651638 -30.57395003 71.92038576 -22.9140625 80.23828125 C-19.90846487 83.00465785 -16.58360301 85.06392357 -13 87 C-15.36937583 87.85968503 -16.51224172 88.21723688 -18.859375 87.171875 C-27.69627372 80.5259429 -35.62601324 70.36135532 -37.45703125 59.21875 C-37.70981601 56.81897998 -37.86426892 54.40922672 -38 52 C-38.33 55.63 -38.66 59.26 -39 63 C-39.33 63 -39.66 63 -40 63 C-40.33 60.36 -40.66 57.72 -41 55 C-41.99 58.3 -42.98 61.6 -44 65 C-45.69231901 58.23072396 -43.88756387 53.40557177 -41.046875 47.3125 C-38.22142482 41.07120706 -36.73369236 34.85139171 -35.59765625 28.12109375 C-34.87561836 24.35045144 -33.96948942 20.65113743 -33 16.9375 C-32.67 15.66777344 -32.34 14.39804687 -32 13.08984375 C-31 10 -31 10 -29 8 C-29 9.98 -29 11.96 -29 14 C-25.59356013 13.43953874 -24.30582623 12.55158612 -22.25 9.8125 C-15.93090994 2.18546861 -10.26087577 -2.14914895 0 0 Z " fill="#9F9E83" transform="translate(112,45)"/>
<path d="M0 0 C2.31 0 4.62 0 7 0 C7.02312392 10.15266151 7.04091534 20.3053168 7.05181217 30.45799923 C7.05704089 35.17179733 7.06413834 39.88557747 7.07543945 44.59936523 C7.08626873 49.14455404 7.09227692 53.68972552 7.09487724 58.23492622 C7.09673142 59.97294958 7.10035189 61.71097194 7.10573006 63.44898796 C7.11294103 65.87478595 7.11399092 68.30051146 7.11352539 70.72631836 C7.11712067 71.45208069 7.12071594 72.17784302 7.12442017 72.92559814 C7.11405216 77.88594784 7.11405216 77.88594784 6 79 C4.02 79 2.04 79 0 79 C0 52.93 0 26.86 0 0 Z " fill="#EFF0EB" transform="translate(161,50)"/>
<path d="M0 0 C5.88942299 3.68825115 11.83814006 8.86309167 13.70703125 15.8046875 C14.89315097 24.69267796 14.83011343 32.80066727 9.3828125 40.1953125 C5.93460275 44.32428469 3.17439881 47.43854171 -2.296875 48.40625 C-8.29503377 48.635479 -11.66309026 47.63826096 -16.2421875 43.7265625 C-23.89685453 36.20797844 -23.89685453 36.20797844 -24.11352539 31.56982422 C-24.10828857 30.5748291 -24.10305176 29.57983398 -24.09765625 28.5546875 C-24.09443359 27.47832031 -24.09121094 26.40195313 -24.08789062 25.29296875 C-24.07951172 24.16503906 -24.07113281 23.03710938 -24.0625 21.875 C-24.05798828 20.73933594 -24.05347656 19.60367188 -24.04882812 18.43359375 C-24.03701615 15.62234362 -24.02054507 12.8111977 -24 10 C-23.67 10 -23.34 10 -23 10 C-22.98541748 10.56920166 -22.97083496 11.13840332 -22.95581055 11.72485352 C-22.88070835 14.33803828 -22.78425811 16.95003099 -22.6875 19.5625 C-22.65366211 20.90538086 -22.65366211 20.90538086 -22.61914062 22.27539062 C-22.35215656 28.90144958 -21.63831412 34.0847935 -17.02734375 39.1796875 C-16.33769531 39.73914063 -15.64804688 40.29859375 -14.9375 40.875 C-13.89916016 41.73738281 -13.89916016 41.73738281 -12.83984375 42.6171875 C-9.70513462 44.97321092 -7.17985205 45.47031549 -3.2265625 45.3984375 C1.1127495 44.62192904 4.04866629 42.16680719 7 39 C10.99661948 33.10610892 11.93544748 26.98767995 11 20 C9.41074282 13.46003522 6.35572168 9.08180055 1.3125 4.625 C-3.08330965 2.46856508 -6.36033552 2.48762318 -11 4 C-14.00333267 6.33336666 -14.00333267 6.33336666 -16 9 C-16.33 9.33 -16.66 9.66 -17 10 C-17.89876393 17.66000868 -18.7026176 26.94302096 -15.68359375 34.13671875 C-12.86047766 37.55351026 -10.59231188 38.8059668 -6.375 40.1875 C-2.65460265 39.98081126 -0.99099976 39.1364284 2 37 C2.66 37 3.32 37 4 37 C3.67 36.01 3.34 35.02 3 34 C5.475 33.505 5.475 33.505 8 33 C6.32891941 38.18123399 3.90260102 40.09493813 -0.63671875 42.875 C-3 44 -3 44 -6.5 44.375 C-11.96264958 42.22895909 -17.06405126 38.26809868 -20.09667969 33.14868164 C-21.70825843 29.31530205 -21.41056626 25.35589963 -21.4375 21.25 C-21.47037109 20.38117188 -21.50324219 19.51234375 -21.53710938 18.6171875 C-21.5905298 12.14845965 -20.14126944 7.99047079 -16 3 C-11.50678146 -1.45748718 -5.92304279 -1.3454989 0 0 Z " fill="#E6E6DC" transform="translate(115,71)"/>
<path d="M0 0 C6.41886574 2.59748339 11.50539041 6.79571521 16 12 C16 12.66 16 13.32 16 14 C6.78947368 10.57894737 6.78947368 10.57894737 5 7 C-0.50468466 4.32138112 -6.93710553 2.66505076 -13 4 C-19.9813346 7.76906408 -24.6401298 15.41488766 -27.375 22.625 C-29.45201397 33.35267009 -29.26093694 46.01679779 -23.453125 55.53515625 C-19.68241603 60.66565629 -15.90807063 64.69730979 -9.75 66.75 C0.04059245 67.65706131 0.04059245 67.65706131 9.1875 64.53515625 C12.17475906 62.00499933 13.83535983 58.82947102 15.6796875 55.41796875 C17.17418869 52.68099764 18.96014646 50.35367716 21 48 C20.4831212 54.71942441 17.20619092 59.97670133 13.3125 65.3125 C7.14540964 69.81280918 0.34563322 71.77496765 -7.26171875 71.44140625 C-13.87602728 70.37519104 -19.18726748 67.49778511 -23.375 62.25 C-31.30727531 50.36282255 -32.67515153 37.12669456 -30.57421875 23.171875 C-28.77676756 17.04069178 -24.99283933 11.90433598 -21 7 C-20.41347656 6.278125 -19.82695313 5.55625 -19.22265625 4.8125 C-13.6623035 -1.01822931 -7.73273757 -1.47599673 0 0 Z " fill="#9A997C" transform="translate(113,55)"/>
<path d="M0 0 C3.44464335 1.11303239 6.72234288 2.46723341 10 4 C10 4.66 10 5.32 10 6 C10.70125 6.226875 11.4025 6.45375 12.125 6.6875 C18.35260848 9.53053865 21.46214566 13.14330537 24.43359375 19.1328125 C25 21 25 21 24 24 C23.66742188 23.1646875 23.66742188 23.1646875 23.328125 22.3125 C19.79171178 14.72714991 14.26783995 10.90050098 7 7 C5.01760644 6.28267146 3.0211719 5.59942356 1 5 C1 4.34 1 3.68 1 3 C-4.26084228 2.91475487 -8.09876456 3.56264066 -12.25 6.9375 C-18.94757691 13.59489145 -21.44752791 20.04525685 -21.5 29.375 C-21.30497212 39.18026891 -20.32856812 49.78654028 -13 57 C-7.68939579 61.841295 -2.89321372 62.54278599 4.16796875 62.46875 C7.36924229 61.93888403 9.30154113 60.75236708 12 59 C12.66 59 13.32 59 14 59 C15.63542086 55.79029551 17.14031997 52.53192428 18.625 49.25 C19.07101563 48.26515625 19.51703125 47.2803125 19.9765625 46.265625 C20.31429687 45.51796875 20.65203125 44.7703125 21 44 C21.66 44 22.32 44 23 44 C22.65540818 50.54724449 19.19007955 57.06297965 14.375 61.49609375 C8.19288848 65.71538486 1.80247282 65.71879116 -5.375 64.64453125 C-13.3030219 62.59370614 -17.73998146 56.69136361 -21.875 49.9375 C-25.91170846 39.39720568 -26.97413314 27.17086073 -23.1796875 16.34765625 C-18.37827246 6.79252235 -11.29341021 -1.84093207 0 0 Z " fill="#EAEAE3" transform="translate(109,58)"/>
<path d="M0 0 C8.33565043 3.7698366 15.17304333 9.49771805 18.875 17.9375 C19.24625 18.948125 19.6175 19.95875 20 21 C20.45038707 15.59535512 19.57976866 12.49265392 16.875 7.796875 C16 6 16 6 16 3 C20.63768531 6.6438956 22.07369925 11.63094897 24 17 C24.66 16.67 25.32 16.34 26 16 C25.91228454 18.68893267 25.80532075 21.37485308 25.6875 24.0625 C25.66494141 24.81466797 25.64238281 25.56683594 25.61914062 26.34179688 C25.37120934 31.54835384 24.31592957 35.32467837 22 40 C21.01 40 20.02 40 19 40 C18.21918293 36.2911189 18.03674058 33.00573541 18.25 29.25 C18.326225 22.03040316 15.15215779 16.47498145 10.5 11.125 C9.675 10.42375 8.85 9.7225 8 9 C7.13375 8.2575 6.2675 7.515 5.375 6.75 C1.30923616 3.75417401 -2.51645454 3.53964208 -7.421875 3.58984375 C-11.03673764 4.16493553 -12.96371748 5.68337791 -15.625 8.1015625 C-19.57459527 13.55469688 -19.4037721 19.91330165 -19.625 26.375 C-19.66367188 27.30183594 -19.70234375 28.22867188 -19.7421875 29.18359375 C-19.83587591 31.4555377 -19.92159348 33.72748596 -20 36 C-20.99 36 -21.98 36 -23 36 C-23.17648219 32.52149069 -23.28156271 29.04415151 -23.375 25.5625 C-23.42527344 24.58861328 -23.47554688 23.61472656 -23.52734375 22.61132812 C-23.67847443 15.07998257 -21.8169714 10.74090824 -17 5 C-16.34004028 4.17918945 -16.34004028 4.17918945 -15.66674805 3.34179688 C-11.27275655 -1.21458298 -5.82658424 -1.21322775 0 0 Z " fill="#D8D8C8" transform="translate(113,65)"/>
<path d="M0 0 C1.22589844 0.01353516 1.22589844 0.01353516 2.4765625 0.02734375 C3.41628906 0.04474609 3.41628906 0.04474609 4.375 0.0625 C4.375 0.7225 4.375 1.3825 4.375 2.0625 C5.22964844 2.14628906 6.08429688 2.23007812 6.96484375 2.31640625 C14.01330689 3.85850987 21.04810424 8.91188314 25.328125 14.70703125 C27.56462153 18.9936496 28.60798861 22.19562686 28.375 27.0625 C26.19174759 24.87924759 25.43315786 23.11841874 24.1875 20.3125 C21.7014823 15.25298011 18.97408945 12.2480165 14.375 9.0625 C13.84132812 8.65 13.30765625 8.2375 12.7578125 7.8125 C8.42654653 4.82827847 4.2308085 4.34378471 -0.97265625 4.55078125 C-6.15303231 5.55023525 -8.96030969 8.69527984 -11.90234375 12.87890625 C-15.37520715 18.60109755 -15.83418571 23.75591346 -16.1875 30.3125 C-16.23068359 31.05757812 -16.27386719 31.80265625 -16.31835938 32.5703125 C-16.42396725 34.400849 -16.52494201 36.23165176 -16.625 38.0625 C-20.28386356 32.57420466 -19.36888972 24.50293865 -18.625 18.0625 C-16.62758095 10.99127988 -12.24149353 5.68867981 -6.625 1.0625 C-4.21954362 -0.14022819 -2.67503047 -0.03821472 0 0 Z " fill="#939273" transform="translate(105.625,60.9375)"/>
<path d="M0 0 C4.34780191 3.57140871 5.92354995 7.93758047 8 13 C8.56236051 14.22923049 9.12484689 15.45840341 9.6875 16.6875 C15.0023591 30.10119201 13.09896987 47.27303447 8.484375 60.58984375 C6.88782724 64.25770216 5.05069381 67.5690315 3 71 C1.87419279 67.66791288 2.14415368 65.84605152 3.3125 62.5625 C4.97932176 57.44838778 5.78394572 52.40415312 6.47265625 47.078125 C7 44 7 44 8.03125 40.98828125 C11.31831542 30.84874477 8.46410231 21.27992176 4 12 C3.34 11.01 2.68 10.02 2 9 C1.3671875 6.73828125 1.3671875 6.73828125 0.875 4.3125 C0.70742187 3.50425781 0.53984375 2.69601563 0.3671875 1.86328125 C0.24601563 1.24839844 0.12484375 0.63351563 0 0 Z " fill="#9D9C81" transform="translate(137,53)"/>
<path d="M0 0 C3.26604763 0.59841491 5.17406707 1.6589078 7.6875 3.8125 C8.28949219 4.31394531 8.89148438 4.81539063 9.51171875 5.33203125 C11.24156322 7.27072833 11.59816168 8.45502399 12 11 C12.12503906 11.72058594 12.25007813 12.44117187 12.37890625 13.18359375 C12.58059529 15.65964853 12.60958948 17.58310651 12 20 C9.67043746 22.39999118 7.17376514 23.94410108 4 25 C3.01 24.67 2.02 24.34 1 24 C1.56589844 23.59007813 2.13179688 23.18015625 2.71484375 22.7578125 C3.44832031 22.21898438 4.18179688 21.68015625 4.9375 21.125 C6.03384766 20.32449219 6.03384766 20.32449219 7.15234375 19.5078125 C9.11098235 18.11987896 9.11098235 18.11987896 10 16 C9.34 16 8.68 16 8 16 C7.67 16.99 7.34 17.98 7 19 C3.7 19 0.4 19 -3 19 C-4.35439668 16.29120665 -4.06501451 13.99066732 -4 11 C-3.01 11 -2.02 11 -1 11 C-0.731875 11.639375 -0.46375 12.27875 -0.1875 12.9375 C0.88667752 15.33131686 0.88667752 15.33131686 4 16 C4 15.34 4 14.68 4 14 C3.01 13.67 2.02 13.34 1 13 C0.67 11.35 0.34 9.7 0 8 C1.32 8.33 2.64 8.66 4 9 C4.33 8.34 4.66 7.68 5 7 C4.360625 6.773125 3.72125 6.54625 3.0625 6.3125 C1 5 1 5 0.25 2.375 C0.1675 1.59125 0.085 0.8075 0 0 Z " fill="#CFD0C0" transform="translate(109,81)"/>
<path d="M0 0 C0.33 0 0.66 0 1 0 C1.03738281 0.97839844 1.07476562 1.95679687 1.11328125 2.96484375 C1.73935835 15.44955763 3.69875295 25.60393156 12.8046875 34.828125 C18.68801913 40.02969717 22.85252717 41.45561078 30.7578125 41.3203125 C37.76586899 40.62795029 45.08428045 38.21364195 50 33 C51.48923594 30.71683363 52.74036113 28.42597117 54 26 C55 29 55 29 54 31.3125 C49.09423313 37.90462424 43.01536757 42.03971989 35 44 C28.22637073 44.89288749 22.01512585 45.21785164 16.0625 41.5 C13.953125 39.81640625 13.953125 39.81640625 12 38 C11.37609375 37.43152344 10.7521875 36.86304688 10.109375 36.27734375 C2.69959855 28.69037699 -1.53074444 19.40021458 -1.4375 8.8125 C-1.22099448 2.44198895 -1.22099448 2.44198895 0 0 Z " fill="#B8B8A1" transform="translate(79,87)"/>
<path d="M0 0 C0.495 0.99 0.495 0.99 1 2 C-0.0390625 4.6796875 -0.0390625 4.6796875 -1.625 7.875 C-2.38683594 9.44894531 -2.38683594 9.44894531 -3.1640625 11.0546875 C-7.31834599 17.71921888 -13.65532319 20.12838352 -21 22 C-27.24365947 22.93853735 -32.35219043 22.89299372 -37.8125 19.5 C-41.99624991 16.27996579 -46.23319195 12.53717824 -49 8 C-48.67 7.01 -48.34 6.02 -48 5 C-45.86732729 7.13267271 -43.76851889 9.25720124 -41.75 11.5 C-36.01350577 16.71499475 -30.68340621 18.75732643 -22.8828125 18.453125 C-16.7185635 17.48421865 -11.10816811 15.05269 -6.625 10.6875 C-6.08875 9.800625 -5.5525 8.91375 -5 8 C-4.55914062 7.3090625 -4.11828125 6.618125 -3.6640625 5.90625 C-2.41814905 3.95133608 -1.20059597 1.98295155 0 0 Z " fill="#EBEBE4" transform="translate(134,107)"/>
<path d="M0 0 C3.44684867 1.10740201 6.7221222 2.46713022 10 4 C10 4.66 10 5.32 10 6 C10.70125 6.226875 11.4025 6.45375 12.125 6.6875 C18.35260848 9.53053865 21.46214566 13.14330537 24.43359375 19.1328125 C25 21 25 21 24 24 C23.66742188 23.1646875 23.66742188 23.1646875 23.328125 22.3125 C19.79171178 14.72714991 14.26783995 10.90050098 7 7 C5.01760644 6.28267146 3.0211719 5.59942356 1 5 C1 4.34 1 3.68 1 3 C-5.70283729 2.89138921 -9.50550099 4.42089139 -14.3359375 9.078125 C-16.44724626 11.51653793 -17.8296279 14.0009215 -19 17 C-19.66 17 -20.32 17 -21 17 C-20.84174817 10.66992685 -17.3267287 7.20131627 -13 3 C-8.76533771 -0.67283581 -5.43132627 -0.79748995 0 0 Z " fill="#EAE9E2" transform="translate(109,58)"/>
<path d="M0 0 C0.33 0 0.66 0 1 0 C1.03738281 1.2065625 1.07476562 2.413125 1.11328125 3.65625 C1.17899219 5.27086178 1.24543771 6.88544378 1.3125 8.5 C1.33505859 9.29148437 1.35761719 10.08296875 1.38085938 10.8984375 C1.67235947 17.36443959 2.60121632 23.22398825 6.9375 28.2421875 C7.618125 28.78101562 8.29875 29.31984375 9 29.875 C9.680625 30.42929688 10.36125 30.98359375 11.0625 31.5546875 C16.20511098 35.3909094 19.70485217 35.75857024 26 35 C31.80243184 32.43353976 35.43318849 27.699597 38 22 C39.03013266 17.35459223 39.60900037 12.73918521 40 8 C40.33 8 40.66 8 41 8 C42.74540716 16.0606076 41.70718098 21.20730622 37.6875 28.390625 C34.81975618 32.82500664 31.96557007 35.94346302 27 38 C20.91939404 38.9151708 15.45590715 38.82983019 10.125 35.5625 C4.77347662 31.43696198 0.71810086 26.42226351 -0.68359375 19.7421875 C-1.03378988 15.6003617 -0.89148218 11.69557495 -0.5625 7.5625 C-0.51029297 6.83095703 -0.45808594 6.09941406 -0.40429688 5.34570312 C-0.27615124 3.56331378 -0.1390184 1.7815743 0 0 Z " fill="#AEAF97" transform="translate(89,83)"/>
<path d="M0 0 C2.74194002 1.04278414 4.54950797 2.27024092 7 4 C7.845625 4.53625 8.69125 5.0725 9.5625 5.625 C14.16957551 10.11394537 18.8378917 16.88244909 19.09765625 23.48046875 C19.08605469 24.37378906 19.07445312 25.26710938 19.0625 26.1875 C19.05347656 27.08855469 19.04445312 27.98960938 19.03515625 28.91796875 C19.02355469 29.60503906 19.01195312 30.29210937 19 31 C18.01 31.495 18.01 31.495 17 32 C16.9175 30.72125 16.835 29.4425 16.75 28.125 C15.60092095 18.60405929 12.31198952 11.88380663 4.85546875 5.671875 C-0.04795257 2.80092517 -4.53775449 2.72828506 -10 4 C-12.83637033 5.40622745 -14.62816451 6.84378592 -17 9 C-16.29616805 5.29895112 -14.97365817 3.34568291 -11.9375 0.98828125 C-8.0862257 -0.97617923 -4.17457371 -0.72226752 0 0 Z " fill="#9B997E" transform="translate(113,68)"/>
<path d="M0 0 C0.33 0 0.66 0 1 0 C1.0515625 0.99257812 1.103125 1.98515625 1.15625 3.0078125 C2.07937169 15.3871504 5.75319525 25.63038867 15.1875 34.1875 C17.98197856 36.37016964 20.86361299 38.3337944 24 40 C21.63062417 40.85968503 20.48775828 41.21723688 18.140625 40.171875 C9.30372628 33.5259429 1.37398676 23.36135532 -0.45703125 12.21875 C-0.70981601 9.81897998 -0.86426892 7.40922672 -1 5 C-1.33 8.63 -1.66 12.26 -2 16 C-2.33 16 -2.66 16 -3 16 C-3.33 13.36 -3.66 10.72 -4 8 C-4.99 11.3 -5.98 14.6 -7 18 C-8.63347006 11.46611975 -7.24983732 6.79318827 -4 1 C-3.34 1.66 -2.68 2.32 -2 3 C-1.34 2.01 -0.68 1.02 0 0 Z " fill="#B5B59F" transform="translate(75,92)"/>
<path d="M0 0 C0.66 0 1.32 0 2 0 C1.83628906 0.53109375 1.67257813 1.0621875 1.50390625 1.609375 C0.88643623 4.53876764 0.90498075 7.25822936 0.9375 10.25 C0.94652344 11.32765625 0.95554687 12.4053125 0.96484375 13.515625 C0.97644531 14.33546875 0.98804687 15.1553125 1 16 C2.27875 15.835 3.5575 15.67 4.875 15.5 C6.94627065 15.23273927 8.91103575 15 11 15 C11.33 14.34 11.66 13.68 12 13 C12.66 13 13.32 13 14 13 C12.49776416 17.20626034 9.71449966 18.73900021 6 21 C6.33 21.66 6.66 22.32 7 23 C2.9986972 22.38441495 0.22175647 20.36262141 -3 18 C-4.85286586 14.29426829 -4.46377118 10.04408469 -4 6 C-2.9461074 3.45267666 -1.87312517 2.09349284 0 0 Z " fill="#DDDDD1" transform="translate(105,84)"/>
<path d="M0 0 C6.41934646 2.5607229 11.51668363 6.80879157 16 12 C16 12.66 16 13.32 16 14 C6.78947368 10.57894737 6.78947368 10.57894737 5 7 C-0.56312349 4.29294437 -6.85975385 2.86733324 -13 4 C-15.90809543 5.85716187 -15.90809543 5.85716187 -18 8 C-18.66 8 -19.32 8 -20 8 C-16.435419 -1.0734789 -8.52424285 -1.30837216 0 0 Z " fill="#989678" transform="translate(113,55)"/>
<path d="M0 0 C0.33 0.99 0.66 1.98 1 3 C1.66 2.67 2.32 2.34 3 2 C2 4 1 6 0 8 C-0.2037399 10.62242356 -0.32356725 13.18709203 -0.375 15.8125 C-0.43107422 16.88081055 -0.43107422 16.88081055 -0.48828125 17.97070312 C-0.55585783 22.02905238 -0.20537192 23.74947302 2.3984375 26.92578125 C5.45889978 29.43109444 5.45889978 29.43109444 9 31 C11.48051222 30.73740217 11.48051222 30.73740217 14 30 C14.928125 29.814375 15.85625 29.62875 16.8125 29.4375 C17.534375 29.293125 18.25625 29.14875 19 29 C19 29.66 19 30.32 19 31 C15.22851594 33.53997906 13.07429381 34.94244855 8.5 35.1875 C3.40692194 33.45949137 -0.57098026 29.85803949 -3 25 C-3.26599844 21.54766267 -3.23153896 18.08644523 -3.25 14.625 C-3.270625 13.6659375 -3.29125 12.706875 -3.3125 11.71875 C-3.31765625 10.79320313 -3.3228125 9.86765625 -3.328125 8.9140625 C-3.3374707 8.0679541 -3.34681641 7.2218457 -3.35644531 6.35009766 C-2.92655982 3.51579781 -1.86469554 2.13363017 0 0 Z " fill="#ACAC92" transform="translate(100,77)"/>
<path d="M0 0 C0.33 0 0.66 0 1 0 C1.00257812 0.65484375 1.00515625 1.3096875 1.0078125 1.984375 C1.4905444 13.37684778 6.88828039 23.98352563 15 32 C19.4116787 35.17068098 24.1409729 37.59841189 29 40 C23.51936803 40.07861562 19.18813625 39.72500815 14.875 36.125 C10.29777851 31.63184992 6.39005897 26.43671691 3 21 C3 20.34 3 19.68 3 19 C2.34 19 1.68 19 1 19 C-0.92433581 14.95357054 -1.2430042 11.71051943 -1.1875 7.25 C-1.18105469 6.10015625 -1.17460938 4.9503125 -1.16796875 3.765625 C-1 1 -1 1 0 0 Z " fill="#ECECE7" transform="translate(74,96)"/>
<path d="M0 0 C6.42195525 -1.01399293 10.96659307 2.43936274 16 6 C19.42105179 9.11145434 20.89638617 11.82076711 21.12109375 16.546875 C21.12460756 19.03465063 21.08689407 21.51386411 21 24 C20.34 23.67 19.68 23.34 19 23 C18.67 23.66 18.34 24.32 18 25 C17.01 24.67 16.02 24.34 15 24 C15.66 24 16.32 24 17 24 C16.61154098 15.97226381 16.61154098 15.97226381 13.4140625 8.8359375 C10.67239754 6.48759157 8.43991179 5.14663726 5 4 C4.67 4.66 4.34 5.32 4 6 C4 4.35 4 2.7 4 1 C2.35 1.33 0.7 1.66 -1 2 C-0.67 1.34 -0.34 0.68 0 0 Z " fill="#E1E1D5" transform="translate(104,77)"/>
<path d="M0 0 C5.84557639 5.45886903 12.34134811 12.6968493 13.0703125 21.05078125 C13.00520833 22.97135417 12.94010417 24.89192708 12.875 26.8125 C11.71750437 24.62208226 10.75325459 22.47904471 9.90234375 20.1484375 C5.91219795 9.30782632 -0.57197029 2.10243447 -10.08203125 -4.32421875 C-12.62416811 -5.39842955 -13.53627763 -4.9998401 -16.125 -4.1875 C-17.87386981 -4.12125493 -19.62502748 -4.10197405 -21.375 -4.125 C-22.26703125 -4.13402344 -23.1590625 -4.14304687 -24.078125 -4.15234375 C-24.75359375 -4.16394531 -25.4290625 -4.17554688 -26.125 -4.1875 C-26.125 -4.8475 -26.125 -5.5075 -26.125 -6.1875 C-14.04468079 -8.91293787 -9.26047032 -7.8431918 0 0 Z " fill="#A3A288" transform="translate(131.125,56.1875)"/>
<path d="M0 0 C3.92052437 2.48978755 7.13945144 5.33571324 10 9 C10 9.99 10 10.98 10 12 C5.70064446 10.56688149 3.30156364 7.39453247 0.25 4.125 C-3.49582144 2.25208928 -7.05621884 2.85207798 -11 4 C-16.64585058 8.20435682 -17.82446552 13.33863795 -19 20 C-19.33 20 -19.66 20 -20 20 C-20.62460568 10.24921136 -20.62460568 10.24921136 -18.25 5.5 C-12.87432052 -0.4729772 -7.93184542 -1.71630396 0 0 Z " fill="#EBEBE3" transform="translate(115,71)"/>
<path d="M0 0 C5.47890962 0.34243185 8.96529905 3.61208317 13 7 C13.92039063 7.75796875 13.92039063 7.75796875 14.859375 8.53125 C20.92858772 14.0096544 24.43719891 21.31159672 27 29 C27.12781786 31.67394964 27.04391871 34.32095857 27 37 C25.01975713 34.02963569 24.33164961 31.8974472 23.375 28.5 C20.16409441 18.70140619 14.48030311 11.44388222 6.078125 5.53515625 C3.82507784 3.87078119 1.93634392 2.01920549 0 0 Z " fill="#E9E9DF" transform="translate(116,50)"/>
<path d="M0 0 C0.75480791 2.23959452 1.11490025 3.59024543 0.46875 5.89453125 C-4.78074063 16.287676 -13.49791256 22.40606363 -24 27 C-27.47290742 27.65200178 -30.55649894 27.86798994 -34 27 C-34.66 26.34 -35.32 25.68 -36 25 C-35.29875 24.97421875 -34.5975 24.9484375 -33.875 24.921875 C-23.20816542 24.2841838 -15.76583078 20.3495478 -8 13 C-4.7881312 8.94578608 -2.2545931 4.64551043 0 0 Z " fill="#E6E6DD" transform="translate(140,111)"/>
<path d="M0 0 C0.33 0 0.66 0 1 0 C0.979375 1.11375 0.95875 2.2275 0.9375 3.375 C0.99379546 16.13436535 3.65451341 27.02098656 12.42578125 36.66796875 C14.54806117 38.57489457 16.7169642 40.29335193 19 42 C20.01789273 42.98178123 21.02491075 43.97569489 22 45 C15.69967665 44.19169841 12.1991569 40.53183658 8 36 C5.73577493 32.79074879 3.80729048 29.48421902 2 26 C1.63003906 25.29617187 1.26007813 24.59234375 0.87890625 23.8671875 C-2.39847495 16.90457321 -1.54358129 7.33201112 0 0 Z " fill="#E6E5DC" transform="translate(77,86)"/>
<path d="M0 0 C1.0625 1.8125 1.0625 1.8125 2 4 C1.67 4.99 1.34 5.98 1 7 C0.87559436 9.6588089 0.81017757 12.27860362 0.8125 14.9375 C0.81185547 15.691521 0.81121094 16.44554199 0.81054688 17.22241211 C0.87025366 23.61714476 1.65002394 29.74430735 3 36 C2.01 36 1.02 36 0 36 C-4.16896108 24.06386738 -4.68798406 11.85948349 0 0 Z " fill="#D9DACD" transform="translate(87,72)"/>
<path d="M0 0 C0.99 0 1.98 0 3 0 C2.54554036 1.41791408 2.08625056 2.83428046 1.625 4.25 C1.36976562 5.03890625 1.11453125 5.8278125 0.8515625 6.640625 C0 9 0 9 -1.015625 10.796875 C-2.74501676 14.66741847 -3.08950349 18.97956319 -3.6796875 23.15625 C-4.42191976 27.6771192 -5.37547745 30.13617972 -9 33 C-8.55036928 27.67542567 -7.72509521 23.07380944 -6 18 C-5.43563563 15.20271575 -4.94163243 12.39938474 -4.46484375 9.5859375 C-4.06407423 7.35644653 -3.58048108 5.18836231 -3 3 C-2.34 3 -1.68 3 -1 3 C-0.67 2.01 -0.34 1.02 0 0 Z " fill="#97977A" transform="translate(81,63)"/>
<path d="M0 0 C4.63768531 3.6438956 6.07369925 8.63094897 8 14 C8.66 13.67 9.32 13.34 10 13 C9.91228454 15.68893267 9.80532075 18.37485308 9.6875 21.0625 C9.65366211 22.19075195 9.65366211 22.19075195 9.61914062 23.34179688 C9.37120934 28.54835384 8.31592957 32.32467837 6 37 C5.01 37 4.02 37 3 37 C2.67 35.02 2.34 33.04 2 31 C2.33 31.66 2.66 32.32 3 33 C3.66 33 4.32 33 5 33 C7.10878857 20.87446573 5.96599137 11.44898706 -1 1 C-0.67 0.67 -0.34 0.34 0 0 Z " fill="#C6C7B3" transform="translate(129,68)"/>
<path d="M0 0 C2.70482125 2.70482125 3.5076736 5.82543681 4.6875 9.375 C5.04424805 10.38433594 5.04424805 10.38433594 5.40820312 11.4140625 C7.46407193 17.53946634 7.46407193 17.53946634 6 21 C5.67 20.34 5.34 19.68 5 19 C5.33 22.3 5.66 25.6 6 29 C3.61336578 25.42004867 2.64734682 21.77970366 1.5 17.6875 C1.07393707 16.19111534 0.64687104 14.69501588 0.21875 13.19921875 C0.01507813 12.48685059 -0.18859375 11.77448242 -0.3984375 11.04052734 C-1.19570302 8.33616646 -2.08437613 5.66633064 -3 3 C-2.01 3.495 -2.01 3.495 -1 4 C-0.67 4.99 -0.34 5.98 0 7 C0 4.69 0 2.38 0 0 Z " fill="#AFAF98" transform="translate(53,85)"/>
<path d="M0 0 C0 1.65 0 3.3 0 5 C0.66 5 1.32 5 2 5 C2.28875 5.639375 2.5775 6.27875 2.875 6.9375 C3.82823451 9.15206079 3.82823451 9.15206079 6 10 C5.67 10.99 5.34 11.98 5 13 C3.68 12.34 2.36 11.68 1 11 C2.11854586 14.72614153 2.11854586 14.72614153 5 17 C5 17.66 5 18.32 5 19 C3.68 18.67 2.36 18.34 1 18 C0.67 16.68 0.34 15.36 0 14 C-0.99 14 -1.98 14 -3 14 C-2.67 10.37 -2.34 6.74 -2 3 C-2.66 3 -3.32 3 -4 3 C-4.66 4.32 -5.32 5.64 -6 7 C-6.33 6.01 -6.66 5.02 -7 4 C-3.375 0 -3.375 0 0 0 Z " fill="#F0F0EA" transform="translate(108,78)"/>
<path d="M0 0 C0.33 0 0.66 0 1 0 C1.03738281 1.2065625 1.07476562 2.413125 1.11328125 3.65625 C1.17899219 5.27086178 1.24543771 6.88544378 1.3125 8.5 C1.33505859 9.29148437 1.35761719 10.08296875 1.38085938 10.8984375 C1.66962566 17.30379881 2.58096667 23.18622901 6.8671875 28.171875 C7.52976562 28.69265625 8.19234375 29.2134375 8.875 29.75 C9.57367188 30.31332031 10.27234375 30.87664062 10.9921875 31.45703125 C11.98605469 32.22080078 11.98605469 32.22080078 13 33 C13.99 33.804375 14.98 34.60875 16 35.4375 C16.66 35.953125 17.32 36.46875 18 37 C12.07081699 36.4353159 8.17467427 34.6207613 4.32421875 29.98046875 C-0.87658992 22.69437164 -1.25449109 16.25613513 -0.5625 7.5625 C-0.51029297 6.83095703 -0.45808594 6.09941406 -0.40429688 5.34570312 C-0.27615124 3.56331378 -0.1390184 1.7815743 0 0 Z " fill="#A5A58B" transform="translate(89,83)"/>
<path d="M0 0 C0.81984375 0.46535156 1.6396875 0.93070312 2.484375 1.41015625 C8.88766027 5.4169457 12.76612953 9.68701351 15 17 C15.1171875 19.8046875 15.1171875 19.8046875 15 22 C12.81674759 19.81674759 12.05815786 18.05591874 10.8125 15.25 C8.3311782 10.20003716 5.60576182 7.16646125 1 4 C0.443125 3.59910156 -0.11375 3.19820313 -0.6875 2.78515625 C-5.29759447 -0.21353946 -9.65138164 -0.75743227 -15 -1 C-15 -1.33 -15 -1.66 -15 -2 C-9.0767274 -3.1430877 -5.30235682 -3.11459577 0 0 Z " fill="#A6A58B" transform="translate(119,66)"/>
<path d="M0 0 C1 3 1 3 -0.07421875 5.77734375 C-0.60660156 6.82019531 -1.13898438 7.86304687 -1.6875 8.9375 C-2.20699219 9.97777344 -2.72648437 11.01804687 -3.26171875 12.08984375 C-6.61650754 17.7062879 -9.93658119 19.88043385 -16.1171875 21.60546875 C-21.22687788 22.30476242 -26.03089834 21.18677858 -31 20 C-27.93787382 19.0799575 -25.42910035 19.00019632 -22.25 19.1875 C-17.0061903 19.19521148 -13.07305289 18.44238663 -9 15 C-6.64467311 11.83285976 -4.82401357 8.49199058 -3 5 C-2.00956736 3.32763013 -1.01219559 1.65928836 0 0 Z " fill="#A6A68C" transform="translate(133,103)"/>
<path d="M0 0 C3 1 3 1 5.0625 4.25 C8.74601773 9.6259448 14.34475727 12.27218618 20.6484375 13.52734375 C22.7575442 13.77019042 24.87943941 13.89739223 27 14 C27 14.33 27 14.66 27 15 C25.39125 15.2165625 25.39125 15.2165625 23.75 15.4375 C20.2534263 15.84273944 20.2534263 15.84273944 18.03515625 16.6875 C14.40771962 17.24449603 12.18088868 14.91211979 9.328125 12.890625 C5.77779638 10.00747223 2.53561951 6.82381205 0 3 C0 2.01 0 1.02 0 0 Z " fill="#E7E7DF" transform="translate(85,112)"/>
<path d="M0 0 C11.13347921 0.19256018 11.13347921 0.19256018 14.75 3.5625 C15.1625 4.366875 15.575 5.17125 16 6 C15.09507813 6.09087891 15.09507813 6.09087891 14.171875 6.18359375 C12.97304687 6.30927734 12.97304687 6.30927734 11.75 6.4375 C10.96109375 6.51871094 10.1721875 6.59992188 9.359375 6.68359375 C7.01306899 6.94421505 7.01306899 6.94421505 4.84375 7.59375 C2.32988343 8.1476528 1.14376458 7.30157135 -1 6 C-0.67 5.67 -0.34 5.34 0 5 C-0.66 4.34 -1.32 3.68 -2 3 C-1.34 2.01 -0.68 1.02 0 0 Z " fill="#D2D2C3" transform="translate(99,130)"/>
<path d="M0 0 C0.66 0 1.32 0 2 0 C1.49526907 2.27128917 0.89123344 4.24312524 -0.0625 6.375 C-1.18390159 9.51492444 -1.4227209 11.68868631 -1 15 C1.11906548 17.63056405 3.18018645 19.1201243 6 21 C6.33 21.66 6.66 22.32 7 23 C2.9986972 22.38441495 0.22175647 20.36262141 -3 18 C-4.85286586 14.29426829 -4.46377118 10.04408469 -4 6 C-2.9461074 3.45267666 -1.87312517 2.09349284 0 0 Z " fill="#D6D6C8" transform="translate(105,84)"/>
<path d="M0 0 C1 3 1 3 0 5.3125 C-4.86483594 11.8496233 -11.01177692 16.09977118 -19 18 C-22.18411239 18.02355113 -24.85033544 17.60961249 -28 17 C-28 16.67 -28 16.34 -28 16 C-27.24976562 15.91363281 -26.49953125 15.82726562 -25.7265625 15.73828125 C-17.61931884 14.62532211 -9.54319568 13.22348925 -4.046875 6.671875 C-2.58082044 4.49334532 -1.23988812 2.31344978 0 0 Z " fill="#C7C7B6" transform="translate(133,113)"/>
<path d="M0 0 C4.90817794 5.97517314 4.5726539 12.51732232 4 20 C3.2439548 22.88352124 2.25527444 25.28023872 1 28 C0.34 27.34 -0.32 26.68 -1 26 C-0.67 25.21625 -0.34 24.4325 0 23.625 C2.08795338 16.05616898 0.99356761 9.44265241 -1 2 C-0.67 1.34 -0.34 0.68 0 0 Z " fill="#D7D8C9" transform="translate(125,81)"/>
<path d="M0 0 C0.66 0 1.32 0 2 0 C2.33 0.99 2.66 1.98 3 3 C2.34 3 1.68 3 1 3 C0.690625 3.804375 0.38125 4.60875 0.0625 5.4375 C-1 8 -1 8 -2 9 C-2.03164125 11.81607168 -1.93158367 14.61901289 -1.83984375 17.43359375 C-2 20 -2 20 -4 22 C-5.57977708 18.84044583 -5.18447084 15.46536183 -5.1875 12 C-5.19974609 11.26265625 -5.21199219 10.5253125 -5.22460938 9.765625 C-5.22987395 7.84229942 -5.12203447 5.91945737 -5 4 C-4.34 3.34 -3.68 2.68 -3 2 C-2.34 2 -1.68 2 -1 2 C-0.67 1.34 -0.34 0.68 0 0 Z " fill="#E6E6DC" transform="translate(104,81)"/>
<path d="M0 0 C2.35545216 1.17772608 4.65132284 2.37416418 6.9375 3.6875 C10.38287245 5.16408819 11.50178345 5.07637432 15 4 C15.928125 3.814375 16.85625 3.62875 17.8125 3.4375 C18.534375 3.293125 19.25625 3.14875 20 3 C20 3.66 20 4.32 20 5 C16.17511548 7.57594264 14.0868659 8.96186435 9.4375 9.125 C4.8504954 7.6237985 3.08433539 5.68615693 0 2 C0 1.34 0 0.68 0 0 Z " fill="#A7A78E" transform="translate(99,103)"/>
<path d="M0 0 C0 0.66 0 1.32 0 2 C-1.70218367 3.49381291 -3.46322891 4.92097016 -5.25 6.3125 C-8.2812041 8.67411271 -10.82991642 10.78739553 -13.234375 13.79296875 C-13.81703125 14.52128906 -14.3996875 15.24960937 -15 16 C-15.66 16 -16.32 16 -17 16 C-16.36441591 10.49160458 -11.87001285 6.63456845 -7.875 3.1875 C-5.14336868 1.10908486 -3.45545772 0 0 0 Z " fill="#E7E8E0" transform="translate(101,44)"/>
<path d="M0 0 C0.99 0.33 1.98 0.66 3 1 C3 1.66 3 2.32 3 3 C1.42578125 4.48046875 1.42578125 4.48046875 -0.6875 6.1875 C-4.55737013 9.45936178 -7.23594479 12.76754047 -10 17 C-10.33 16.34 -10.66 15.68 -11 15 C-10.22265625 13.2734375 -10.22265625 13.2734375 -9.0625 11.375 C-8.0415625 9.704375 -8.0415625 9.704375 -7 8 C-8.32 9.32 -9.64 10.64 -11 12 C-10.44225728 8.76509224 -9.62788492 7.02144994 -7 5 C-6.01 5 -5.02 5 -4 5 C-1.79857668 2.5609294 -1.79857668 2.5609294 0 0 Z " fill="#E6E6DD" transform="translate(96,54)"/>
<path d="M0 0 C0.33 0 0.66 0 1 0 C2.93271433 12.72529732 2.93271433 12.72529732 -0.375 17.3125 C-1.24125 18.199375 -2.1075 19.08625 -3 20 C-3.33 20 -3.66 20 -4 20 C-4.66268329 12.87615459 -2.25388064 6.69120815 0 0 Z " fill="#8D8A6C" transform="translate(71,97)"/>
<path d="M0 0 C0.33 0 0.66 0 1 0 C1.07654536 4.51617599 1.10228696 8.59085217 0 13 C-1.32 12.67 -2.64 12.34 -4 12 C-4.33 8.37 -4.66 4.74 -5 1 C-4.34 1 -3.68 1 -3 1 C-2.67 1.99 -2.34 2.98 -2 4 C-1.34 2.68 -0.68 1.36 0 0 Z " fill="#9E9F82" transform="translate(66,82)"/>
<path d="M0 0 C2.96756243 1.37779684 5.39800183 3.02878926 8 5 C13.31763906 8.63978634 18.68482516 9.38023665 25 10 C25 10.33 25 10.66 25 11 C16.94462445 11.67231883 11.36002011 11.61473235 4.8046875 6.60546875 C1.35763889 3.53893849 1.35763889 3.53893849 0 2 C0 1.34 0 0.68 0 0 Z " fill="#ACAB93" transform="translate(88,120)"/>
<path d="M0 0 C8.94761773 0.28405136 14.84193666 3.53209699 21 10 C20.67 10.99 20.34 11.98 20 13 C19.56171875 12.55269531 19.1234375 12.10539062 18.671875 11.64453125 C13.07400712 6.30835231 7.22823589 3.61421198 0 1 C0 0.67 0 0.34 0 0 Z " fill="#979675" transform="translate(109,51)"/>
<path d="M0 0 C0.66 0 1.32 0 2 0 C0.52417325 5.247384 -3.00827156 9.39565449 -7 13 C-9.2265625 13.734375 -9.2265625 13.734375 -11 14 C-10.45799828 10.20598795 -8.9949434 8.80784756 -6.0625 6.4375 C-3.46971343 4.32468481 -1.88302476 2.82453714 0 0 Z " fill="#8E8F6E" transform="translate(138,120)"/>
<path d="M0 0 C2 1 2 1 3.125 2.9375 C4.37069969 7.29744893 4.15742081 11.49601581 4 16 C3.34 15.67 2.68 15.34 2 15 C1.67 15.66 1.34 16.32 1 17 C0.01 16.67 -0.98 16.34 -2 16 C-1.34 16 -0.68 16 0 16 C-0.33 12.04 -0.66 8.08 -1 4 C-0.34 4 0.32 4 1 4 C0.67 2.68 0.34 1.36 0 0 Z " fill="#DDDED1" transform="translate(121,85)"/>
<path d="M0 0 C-1.95702015 1.3046801 -3.93582457 2.57742367 -5.9375 3.8125 C-8.96557592 5.97541137 -10.79559558 8.03545612 -13 11 C-13.98230498 12.0173873 -14.97469597 13.02596117 -16 14 C-16.27588936 10.96521706 -16.25932375 9.41083875 -14.609375 6.796875 C-13.99578125 6.12140625 -13.3821875 5.4459375 -12.75 4.75 C-12.14671875 4.06421875 -11.5434375 3.3784375 -10.921875 2.671875 C-7.55745808 -0.25489419 -4.31958995 -0.11998861 0 0 Z " fill="#E7E7DF" transform="translate(108,66)"/>
<path d="M0 0 C3.36932864 4.49243819 3.37007917 6.95052266 3.1875 12.25 C3.16719727 13.36761719 3.16719727 13.36761719 3.14648438 14.5078125 C3.11127204 16.33885416 3.05746851 18.16952169 3 20 C2.01 20 1.02 20 0 20 C0 13.4 0 6.8 0 0 Z " fill="#D5D6C7" transform="translate(94,82)"/>
<path d="M0 0 C0 3 0 3 -1.4375 5.375 C-3.0500166 8.08402788 -3.48702498 9.9221499 -4 13 C-4.65146849 15.33762223 -5.31526605 17.67190457 -6 20 C-6.66 20 -7.32 20 -8 20 C-8.0898463 16.76553308 -7.82403366 14.11301606 -7 11 C-6.9175 9.824375 -6.835 8.64875 -6.75 7.4375 C-6 4 -6 4 -3.5 2.125 C-2.675 1.75375 -1.85 1.3825 -1 1 C-0.67 0.67 -0.34 0.34 0 0 Z " fill="#DADBCE" transform="translate(89,61)"/>
<path d="M0 0 C0.33 0.66 0.66 1.32 1 2 C-0.299375 2.04125 -1.59875 2.0825 -2.9375 2.125 C-8.68445855 2.71794017 -12.52013053 5.53683849 -17 9 C-16.29656483 5.30103751 -14.95996131 3.36728569 -11.96484375 0.97265625 C-8.19179286 -0.89511646 -4.0969871 -0.36435656 0 0 Z " fill="#969477" transform="translate(113,68)"/>
<path d="M0 0 C0.66 0.66 1.32 1.32 2 2 C0.78763672 2.14695313 0.78763672 2.14695313 -0.44921875 2.296875 C-8.49552578 3.36657136 -8.49552578 3.36657136 -15 8 C-15.66 8 -16.32 8 -17 8 C-13.89271823 0.09055549 -7.78474108 -1.18493404 0 0 Z " fill="#929270" transform="translate(110,55)"/>
<path d="M0 0 C0.66 0.33 1.32 0.66 2 1 C2 2.32 2 3.64 2 5 C1.38125 5.165 0.7625 5.33 0.125 5.5 C-3.27756949 7.90181375 -3.22612026 11.00162134 -4 15 C-4.66 15 -5.32 15 -6 15 C-6 12.03 -6 9.06 -6 6 C-4.68 5.34 -3.36 4.68 -2 4 C-0.73195434 1.9664052 -0.73195434 1.9664052 0 0 Z " fill="#8C8C6D" transform="translate(79,43)"/>
<path d="M0 0 C0.66 0.99 1.32 1.98 2 3 C1.67475342 3.56460938 1.34950684 4.12921875 1.0144043 4.7109375 C-0.10224862 7.23072997 -0.2446944 8.88474874 -0.23046875 11.625 C-0.22853516 12.49640625 -0.22660156 13.3678125 -0.22460938 14.265625 C-0.21236328 15.16796875 -0.20011719 16.0703125 -0.1875 17 C-0.18685547 17.90234375 -0.18621094 18.8046875 -0.18554688 19.734375 C-0.15933421 23.67209997 -0.08896757 27.19377322 1 31 C0.34 31.33 -0.32 31.66 -1 32 C-2.56170982 27.31487055 -2.18447304 22.59420489 -2.1875 17.6875 C-2.19974609 16.65431641 -2.21199219 15.62113281 -2.22460938 14.55664062 C-2.23469961 9.31308217 -2.13208512 4.89621128 0 0 Z " fill="#AAAB92" transform="translate(95,75)"/>
<path d="M0 0 C0.66 0 1.32 0 2 0 C1.67698799 6.13722814 -1.3956321 11.16230728 -5 16 C-5.66 16 -6.32 16 -7 16 C-6.28028381 12.24654344 -4.66887798 9.13908031 -2.9375 5.75 C-2.11572266 4.13351563 -2.11572266 4.13351563 -1.27734375 2.484375 C-0.64505859 1.25460938 -0.64505859 1.25460938 0 0 Z " fill="#EDECE7" transform="translate(130,102)"/>
<path d="M0 0 C0.33 0 0.66 0 1 0 C1.06058594 0.73605469 1.12117188 1.47210938 1.18359375 2.23046875 C1.26738281 3.20628906 1.35117188 4.18210937 1.4375 5.1875 C1.51871094 6.15042969 1.59992188 7.11335938 1.68359375 8.10546875 C1.93366915 10.98544791 1.93366915 10.98544791 2.66015625 13.67578125 C3 16 3 16 1 19 C-0.92433581 14.95357054 -1.2430042 11.71051943 -1.1875 7.25 C-1.18105469 6.10015625 -1.17460938 4.9503125 -1.16796875 3.765625 C-1 1 -1 1 0 0 Z " fill="#D3D3C4" transform="translate(74,96)"/>
<path d="M0 0 C0.66 0.66 1.32 1.32 2 2 C1.50628906 2.66386719 1.01257813 3.32773438 0.50390625 4.01171875 C-0.13675781 4.89472656 -0.77742188 5.77773437 -1.4375 6.6875 C-2.07558594 7.55761719 -2.71367188 8.42773438 -3.37109375 9.32421875 C-4.98971649 11.98310742 -5.6083962 13.93887169 -6 17 C-6.99 17.33 -7.98 17.66 -9 18 C-8.48918339 13.21109426 -7.16456098 10.17888131 -4.5 6.1875 C-3.8709375 5.23230469 -3.241875 4.27710937 -2.59375 3.29296875 C-1 1 -1 1 0 0 Z " fill="#A5A68B" transform="translate(92,62)"/>
<path d="M0 0 C0.144375 0.61875 0.28875 1.2375 0.4375 1.875 C0.93152225 4.03258322 0.93152225 4.03258322 2 6 C4.02463255 6.65213292 4.02463255 6.65213292 6 7 C4.1875 9 4.1875 9 2 11 C1.01 11 0.02 11 -1 11 C-1.66 11.66 -2.32 12.32 -3 13 C-2.52060632 8.28596212 -2.03165952 4.33420699 0 0 Z " fill="#AEAE96" transform="translate(82,53)"/>
<path d="M0 0 C0.33 0 0.66 0 1 0 C1.18451025 10.55808656 1.18451025 10.55808656 0 15 C-0.66 15 -1.32 15 -2 15 C-2.99 12.03 -3.98 9.06 -5 6 C-3.68 5.34 -2.36 4.68 -1 4 C-0.19471111 1.94999129 -0.19471111 1.94999129 0 0 Z " fill="#CECEC1" transform="translate(144,79)"/>
<path d="M0 0 C0.4125 0.37511719 0.825 0.75023438 1.25 1.13671875 C5.56213158 4.95796035 10.03440438 8.08513088 15 11 C13.25390625 11.66796875 13.25390625 11.66796875 11 12 C8.96484375 10.92578125 8.96484375 10.92578125 6.9375 9.3125 C6.26589844 8.79300781 5.59429687 8.27351562 4.90234375 7.73828125 C2.95167475 5.95584243 1.44513607 4.21047293 0 2 C0 1.34 0 0.68 0 0 Z " fill="#AFAE96" transform="translate(84,121)"/>
<path d="M0 0 C0.66 0.33 1.32 0.66 2 1 C3.5521123 6.08747921 4.53043096 11.69569037 4 17 C3.34 17.66 2.68 18.32 2 19 C1.86722656 18.10796875 1.73445312 17.2159375 1.59765625 16.296875 C1.42105469 15.12640625 1.24445313 13.9559375 1.0625 12.75 C0.88847656 11.58984375 0.71445313 10.4296875 0.53515625 9.234375 C0.07950561 6.13541441 0.07950561 6.13541441 -0.62890625 3.703125 C-1 2 -1 2 0 0 Z " fill="#A8A88F" transform="translate(145,68)"/>
<path d="M0 0 C0.66 0.99 1.32 1.98 2 3 C1.34 3 0.68 3 0 3 C0.20625 3.86625 0.4125 4.7325 0.625 5.625 C1.18550101 10.66950912 -0.22573403 13.83860105 -3 18 C-3.66 18 -4.32 18 -5 18 C-4.51030705 11.38914524 -2.66557258 6.05022986 0 0 Z " fill="#CDCCBB" transform="translate(82,66)"/>
<path d="M0 0 C0.66 0.33 1.32 0.66 2 1 C-3.74235898 6.2451156 -8.22561581 7.96813777 -16 8 C-12.90147699 5.93431799 -9.80607126 4.39704581 -6.4375 2.8125 C-5.28121094 2.26207031 -4.12492187 1.71164063 -2.93359375 1.14453125 C-1.96550781 0.76683594 -0.99742188 0.38914062 0 0 Z " fill="#A8A991" transform="translate(126,127)"/>
<path d="M0 0 C2 1 2 1 3.1875 4.3125 C3.90649268 7.57562063 4.20286847 8.99282882 3 12 C2.67 11.34 2.34 10.68 2 10 C2.33 13.3 2.66 16.6 3 20 C1.09681116 17.14521674 0.5380901 15.58058692 -0.125 12.3125 C-0.29257812 11.50425781 -0.46015625 10.69601563 -0.6328125 9.86328125 C-0.75398438 9.24839844 -0.87515625 8.63351563 -1 8 C-0.34 8 0.32 8 1 8 C0.67 5.36 0.34 2.72 0 0 Z " fill="#B3B29E" transform="translate(56,94)"/>
<path d="M0 0 C0.99 0 1.98 0 3 0 C3.268125 0.639375 3.53625 1.27875 3.8125 1.9375 C4.88667752 4.33131686 4.88667752 4.33131686 8 5 C8 5.66 8 6.32 8 7 C5.69 7.33 3.38 7.66 1 8 C-0.35439668 5.29120665 -0.06501451 2.99066732 0 0 Z " fill="#C3C4B2" transform="translate(105,92)"/>
<path d="M0 0 C0.99 1.485 0.99 1.485 2 3 C2.66 3.66 3.32 4.32 4 5 C4.125 8.125 4.125 8.125 4 11 C3.34 11 2.68 11 2 11 C2 11.99 2 12.98 2 14 C1.34 14 0.68 14 0 14 C0 9.38 0 4.76 0 0 Z " fill="#E3E4D9" transform="translate(138,84)"/>
<path d="M0 0 C-0.66 0.66 -1.32 1.32 -2 2 C-2.7425 1.484375 -3.485 0.96875 -4.25 0.4375 C-7.47667478 -1.24917091 -7.70145703 -0.90829444 -11 0 C-12.74886981 0.06624507 -14.50002748 0.08552595 -16.25 0.0625 C-17.14203125 0.05347656 -18.0340625 0.04445313 -18.953125 0.03515625 C-19.62859375 0.02355469 -20.3040625 0.01195312 -21 0 C-21 -0.66 -21 -1.32 -21 -2 C-12.62973905 -3.88841253 -7.31577554 -4.87718369 0 0 Z " fill="#C1C0AD" transform="translate(126,52)"/>
<path d="M0 0 C-1.40976705 3.03852705 -3.08870228 5.5939595 -5.125 8.25 C-5.66382812 8.95640625 -6.20265625 9.6628125 -6.7578125 10.390625 C-7.16773437 10.92171875 -7.57765625 11.4528125 -8 12 C-9 9 -9 9 -7.8125 5.4375 C-6 2 -6 2 -3.9375 0.5625 C-2 0 -2 0 0 0 Z " fill="#8C8B6A" transform="translate(91,48)"/>
<path d="M0 0 C3.14737182 0.69941596 6.02588876 1.76078698 9 3 C8.01 3.33 7.02 3.66 6 4 C6 4.66 6 5.32 6 6 C1.71 5.01 -2.58 4.02 -7 3 C-7 2.67 -7 2.34 -7 2 C-3.535 1.505 -3.535 1.505 0 1 C0 0.67 0 0.34 0 0 Z " fill="#A3A287" transform="translate(110,55)"/>
<path d="M0 0 C4.29 0 8.58 0 13 0 C13.33 0.66 13.66 1.32 14 2 C12.77023438 2.09087891 12.77023438 2.09087891 11.515625 2.18359375 C9.89914063 2.30927734 9.89914063 2.30927734 8.25 2.4375 C6.64898437 2.55931641 6.64898437 2.55931641 5.015625 2.68359375 C2.56320038 2.94090773 0.36078709 3.31812218 -2 4 C-1.34 2.68 -0.68 1.36 0 0 Z " fill="#E7E6DB" transform="translate(101,48)"/>
<path d="M0 0 C0 3.21534057 -0.26476072 4.35582586 -2 7 C-5.41369468 9.58333652 -7.7361901 10.36546942 -12 10 C-11.319375 9.46375 -10.63875 8.9275 -9.9375 8.375 C-6.56615832 5.64923439 -3.27934457 2.83516822 0 0 Z " fill="#A2A289" transform="translate(136,136)"/>
<path d="M0 0 C0.66 0 1.32 0 2 0 C3.7265625 1.75 3.7265625 1.75 5.625 4 C6.25664063 4.7425 6.88828125 5.485 7.5390625 6.25 C8.02117187 6.8275 8.50328125 7.405 9 8 C8.67 8.66 8.34 9.32 8 10 C4.63362603 8.5572683 2.33497429 6.83532593 0 4 C0 2.68 0 1.36 0 0 Z " fill="#EBEBE5" transform="translate(96,102)"/>
<path d="M0 0 C-1.44077046 3.36179774 -3.24750021 5.59156268 -6 8 C-6.66 8 -7.32 8 -8 8 C-8 8.66 -8 9.32 -8 10 C-8.66 10 -9.32 10 -10 10 C-8.71596412 5.50587442 -5.23012555 0 0 0 Z " fill="#999979" transform="translate(97,50)"/>
<path d="M0 0 C1.32 1.32 2.64 2.64 4 4 C3.67 4.66 3.34 5.32 3 6 C2.34 6 1.68 6 1 6 C0.67 6.66 0.34 7.32 0 8 C-1.33597652 7.19185349 -2.668725 6.37836819 -4 5.5625 C-4.7425 5.11003906 -5.485 4.65757813 -6.25 4.19140625 C-6.8275 3.79824219 -7.405 3.40507813 -8 3 C-8 2.67 -8 2.34 -8 2 C-4.95613276 1.91773332 -2.92824652 2.02391783 0 3 C0 2.01 0 1.02 0 0 Z " fill="#99997B" transform="translate(128,44)"/>
<path d="M0 0 C5 2 10 4 15 6 C15 6.33 15 6.66 15 7 C6.05245573 6.65252255 6.05245573 6.65252255 1.875 4.0625 C0 2 0 2 0 0 Z " fill="#E5E6DD" transform="translate(88,129)"/>
<path d="M0 0 C0.99 0.33 1.98 0.66 3 1 C0.60633973 3.77160662 -1.44508961 5.07263207 -5 6 C-8.03539309 5.86736097 -11.00199318 5.48333879 -14 5 C-14 4.67 -14 4.34 -14 4 C-13.40832031 3.96261719 -12.81664063 3.92523438 -12.20703125 3.88671875 C-7.27211276 3.47614641 -4.21810173 2.72935995 0 0 Z " fill="#D9D9CB" transform="translate(121,117)"/>
<path d="M0 0 C0.51949219 0.34933594 1.03898437 0.69867188 1.57421875 1.05859375 C6.87724314 4.54055504 6.87724314 4.54055504 13 6 C12.34 6.66 11.68 7.32 11 8 C6.1755557 7.78558025 3.40363175 6.40363175 0 3 C0 2.01 0 1.02 0 0 Z " fill="#ECECE5" transform="translate(101,101)"/>
<path d="M0 0 C2.97 0 5.94 0 9 0 C9.99 1.98 10.98 3.96 12 6 C10.3713449 5.57630928 8.74712622 5.1355377 7.125 4.6875 C6.22007813 4.44386719 5.31515625 4.20023438 4.3828125 3.94921875 C2 3 2 3 0 0 Z " fill="#8E8C6C" transform="translate(118,43)"/>
<path d="M0 0 C3.0534135 -0.29359745 5.95743422 -0.4451258 9 0 C11.5625 2.5 11.5625 2.5 13 5 C6.9453125 5.1953125 6.9453125 5.1953125 5 5 C4.34 4.34 3.68 3.68 3 3 C3.33 2.67 3.66 2.34 4 2 C2.68 1.34 1.36 0.68 0 0 Z " fill="#BEBEAA" transform="translate(102,131)"/>
<path d="M0 0 C0.98871094 -0.01417969 1.97742188 -0.02835937 2.99609375 -0.04296875 C5.5625 0.1875 5.5625 0.1875 7.5625 2.1875 C7.5625 2.8475 7.5625 3.5075 7.5625 4.1875 C5.97840006 4.07262252 4.39521037 3.94515492 2.8125 3.8125 C1.93078125 3.74289063 1.0490625 3.67328125 0.140625 3.6015625 C-2.42816382 3.18899945 -4.19591015 2.47589043 -6.4375 1.1875 C-4.69900372 -0.55099628 -2.3588363 0.01533704 0 0 Z " fill="#D8D7C8" transform="translate(107.4375,64.8125)"/>
<path d="M0 0 C0.66 0.33 1.32 0.66 2 1 C-0.77611933 4.59867321 -3.61248087 7.95991873 -7 11 C-7.99 11 -8.98 11 -10 11 C-8.55218207 7.55571735 -6.72305391 5.63869038 -3.875 3.25 C-3.15054688 2.63640625 -2.42609375 2.0228125 -1.6796875 1.390625 C-0.84824219 0.70226563 -0.84824219 0.70226563 0 0 Z " fill="#A5A68F" transform="translate(79,41)"/>
<path d="M0 0 C0.99 0.66 1.98 1.32 3 2 C2.01 4.97 1.02 7.94 0 11 C-0.99 11 -1.98 11 -3 11 C-3.33 9.02 -3.66 7.04 -4 5 C-3.67 5.66 -3.34 6.32 -3 7 C-2.34 7 -1.68 7 -1 7 C-0.67 4.69 -0.34 2.38 0 0 Z " fill="#CECDBC" transform="translate(135,94)"/>
<path d="M0 0 C5.32697239 1.45281065 8.36402802 5.08111378 12 9 C11.34 9.66 10.68 10.32 10 11 C8.33035479 9.35718838 6.6643536 7.71067239 5 6.0625 C4.071875 5.14597656 3.14375 4.22945312 2.1875 3.28515625 C0 1 0 1 0 0 Z " fill="#AEAD95" transform="translate(125,53)"/>
<path d="M0 0 C6.4607438 0.60950413 6.4607438 0.60950413 8.8125 2.3125 C10.09570308 4.13599912 11.08842752 5.96649215 12 8 C9.14940657 6.61964507 6.44119096 5.10703513 3.75 3.4375 C3.04359375 3.00308594 2.3371875 2.56867187 1.609375 2.12109375 C1.07828125 1.75113281 0.5471875 1.38117187 0 1 C0 0.67 0 0.34 0 0 Z " fill="#A3A28A" transform="translate(122,32)"/>
<path d="M0 0 C0.33 0 0.66 0 1 0 C1.36263859 5.8022175 0.25684543 9.63999211 -2 15 C-2.66 14.01 -3.32 13.02 -4 12 C-3.25 9.75 -3.25 9.75 -2 7 C-1.31320058 4.67251306 -0.64238957 2.34013344 0 0 Z " fill="#A7A98E" transform="translate(126,94)"/>
<path d="M0 0 C1 3 1 3 -0.0625 5.375 C-2.40122214 8.54359128 -4.89579024 10.58561463 -8 13 C-8.66 12.67 -9.32 12.34 -10 12 C-9.0925 11.319375 -8.185 10.63875 -7.25 9.9375 C-3.77393779 7.07098424 -2.03435118 3.99045809 0 0 Z " fill="#BCBDA7" transform="translate(133,113)"/>
<path d="M0 0 C0.66 0.99 1.32 1.98 2 3 C1.09066991 4.27609323 0.17217147 5.54565553 -0.75 6.8125 C-1.26046875 7.52019531 -1.7709375 8.22789063 -2.296875 8.95703125 C-4.02482358 11.02977691 -5.78526476 12.47375854 -8 14 C-8 9.77679562 -5.92905729 8.92905729 -3 6 C-1.20679176 2.83354526 -1.20679176 2.83354526 0 0 Z " fill="#C7C8B6" transform="translate(136,114)"/>
<path d="M0 0 C0.33 0 0.66 0 1 0 C1.2475 1.2375 1.495 2.475 1.75 3.75 C2.6710758 7.51439673 3.91347366 9.53077893 7 12 C4.02545866 11.67842796 2.40664722 11.37860258 0.1875 9.3125 C-1.32124409 6.37441941 -1.28974495 4.25963068 -1 1 C-0.67 0.67 -0.34 0.34 0 0 Z " fill="#E9E9DF" transform="translate(104,92)"/>
<path d="M0 0 C1.32 0.66 2.64 1.32 4 2 C4 3.32 4 4.64 4 6 C2.35 6 0.7 6 -1 6 C-1.33 4.68 -1.66 3.36 -2 2 C-1.34 2 -0.68 2 0 2 C0 1.34 0 0.68 0 0 Z " fill="#8F8F6D" transform="translate(131,48)"/>
<path d="M0 0 C0 0.66 0 1.32 0 2 C-4.00952575 3.33650858 -7.82016197 3.20225023 -12 3 C-12.66 2.34 -13.32 1.68 -14 1 C-4.58997722 -0.14806378 -4.58997722 -0.14806378 0 0 Z " fill="#F8F8F5" transform="translate(117,126)"/>
<path d="M0 0 C0.33 0.99 0.66 1.98 1 3 C-3.39453125 7.00390625 -3.39453125 7.00390625 -5 8 C-5.99 7.67 -6.98 7.34 -8 7 C-5.4837822 4.39391727 -2.94865641 2.10618315 0 0 Z " fill="#979776" transform="translate(122,107)"/>
<path d="M0 0 C3.79062273 4.82442893 5.28418033 7.74803275 5 14 C1.37892551 9.55595403 -0.33060893 5.78565632 0 0 Z " fill="#919172" transform="translate(84,101)"/>
<path d="M0 0 C1.04296875 1.87109375 1.04296875 1.87109375 2 4 C0.99659644 7.01021068 -0.67503273 8.88639339 -3 11 C-4 8 -4 8 -3.22265625 5.95703125 C-2.83980469 5.24933594 -2.45695313 4.54164062 -2.0625 3.8125 C-1.68222656 3.09707031 -1.30195313 2.38164063 -0.91015625 1.64453125 C-0.60980469 1.10183594 -0.30945313 0.55914062 0 0 Z " fill="#D6D6C9" transform="translate(137,104)"/>
<path d="M0 0 C0.66 0 1.32 0 2 0 C2 0.99 2 1.98 2 3 C0.35546875 4.421875 0.35546875 4.421875 -1.8125 5.75 C-2.52019531 6.19859375 -3.22789063 6.6471875 -3.95703125 7.109375 C-6 8 -6 8 -9 7 C-8.43410156 6.57847656 -7.86820312 6.15695313 -7.28515625 5.72265625 C-6.55167969 5.17480469 -5.81820312 4.62695312 -5.0625 4.0625 C-4.33160156 3.51722656 -3.60070312 2.97195312 -2.84765625 2.41015625 C-1.0865547 1.13092062 -1.0865547 1.13092062 0 0 Z " fill="#C0C1AF" transform="translate(119,98)"/>
<path d="M0 0 C0.66 0 1.32 0 2 0 C2.33 3.63 2.66 7.26 3 11 C1.35 10.01 -0.3 9.02 -2 8 C-1.34 5.36 -0.68 2.72 0 0 Z " fill="#8C8B6B" transform="translate(45,95)"/>
<path d="M0 0 C1.485 0.99 1.485 0.99 3 2 C3.29296875 4.3828125 3.29296875 4.3828125 3.1875 7.125 C3.16042969 8.03507812 3.13335937 8.94515625 3.10546875 9.8828125 C3.07066406 10.58148438 3.03585938 11.28015625 3 12 C2.01 12.495 2.01 12.495 1 13 C0.67 8.71 0.34 4.42 0 0 Z " fill="#999A79" transform="translate(129,87)"/>
<path d="M0 0 C3.26566506 4.89849759 3.09311493 8.31998909 3 14 C1.13591522 11.20387283 0.51163882 9.62830652 -0.1875 6.4375 C-0.36667969 5.65246094 -0.54585937 4.86742188 -0.73046875 4.05859375 C-1 2 -1 2 0 0 Z " fill="#DFDFD0" transform="translate(140,73)"/>
<path d="M0 0 C2.475 0.495 2.475 0.495 5 1 C5.66 2.98 6.32 4.96 7 7 C4.13302508 5.71480435 2.02392288 4.42870746 0 2 C0 1.34 0 0.68 0 0 Z " fill="#F7F6F2" transform="translate(115,82)"/>
<path d="M0 0 C-2 2 -2 2 -4.8203125 2.1953125 C-5.91085938 2.17210938 -7.00140625 2.14890625 -8.125 2.125 C-9.22070312 2.10695313 -10.31640625 2.08890625 -11.4453125 2.0703125 C-12.28835937 2.04710938 -13.13140625 2.02390625 -14 2 C-11.17457671 0.11638447 -10.18940682 -0.31902686 -7 -0.6875 C-5.9790625 -0.81705078 -5.9790625 -0.81705078 -4.9375 -0.94921875 C-3 -1 -3 -1 0 0 Z " fill="#BABAA5" transform="translate(118,119)"/>
<path d="M0 0 C2 1 2 1 3 3 C0.77109005 4.11445498 -0.53055106 4.16480286 -3 4.1875 C-4.051875 4.20876953 -4.051875 4.20876953 -5.125 4.23046875 C-7 4 -7 4 -9 2 C-6.06193103 1.02064368 -4.04722362 1 -1 1 C-0.67 0.67 -0.34 0.34 0 0 Z " fill="#ABAB93" transform="translate(113,113)"/>
<path d="M0 0 C0.66 0 1.32 0 2 0 C2.2226746 1.43534841 2.42761906 2.87345525 2.625 4.3125 C2.74101562 5.11300781 2.85703125 5.91351563 2.9765625 6.73828125 C3 9 3 9 1 12 C1 9.69 1 7.38 1 5 C0.01 5 -0.98 5 -2 5 C-2 4.34 -2 3.68 -2 3 C-1.34 3 -0.68 3 0 3 C0 2.01 0 1.02 0 0 Z " fill="#D6D7C8" transform="translate(140,97)"/>
<path d="M0 0 C0.45375 0.66 0.9075 1.32 1.375 2 C1.91125 2.66 2.4475 3.32 3 4 C3.66 4 4.32 4 5 4 C5 7.3 5 10.6 5 14 C1.96047287 9.4407093 0 5.52837581 0 0 Z " fill="#B8B7A4" transform="translate(25,79)"/>
<path d="M0 0 C9.59453303 0.59453303 9.59453303 0.59453303 13 4 C9.29218328 5.23593891 8.32489747 4.5678132 4.8125 3.0625 C3.91144531 2.68222656 3.01039062 2.30195312 2.08203125 1.91015625 C1.39496094 1.60980469 0.70789063 1.30945312 0 1 C0 0.67 0 0.34 0 0 Z " fill="#A1A084" transform="translate(109,51)"/>
<path d="M0 0 C0.33 0.66 0.66 1.32 1 2 C0.00390625 4.3828125 0.00390625 4.3828125 -1.4375 7.125 C-1.91058594 8.03507812 -2.38367188 8.94515625 -2.87109375 9.8828125 C-3.24363281 10.58148438 -3.61617187 11.28015625 -4 12 C-5.40253926 7.79238221 -3.90602531 5.88264416 -2 2 C-1.34 1.34 -0.68 0.68 0 0 Z " fill="#8E8C6C" transform="translate(153,112)"/>
<path d="M0 0 C1.68156755 2.52235132 3.16468006 5.03586642 4.625 7.6875 C5.07101563 8.49574219 5.51703125 9.30398437 5.9765625 10.13671875 C6.31429687 10.75160156 6.65203125 11.36648437 7 12 C6.01 12.495 6.01 12.495 5 13 C3.96679519 11.40377344 2.94877571 9.79770894 1.9375 8.1875 C1.36902344 7.29417969 0.80054687 6.40085937 0.21484375 5.48046875 C-1 3 -1 3 0 0 Z " fill="#BEBFAC" transform="translate(78,109)"/>
<path d="M0 0 C3.875 0.875 3.875 0.875 5 2 C5.04063832 3.66617115 5.042721 5.33388095 5 7 C3.0625 6.3125 3.0625 6.3125 1 5 C0.25 2.375 0.25 2.375 0 0 Z " fill="#C0C0AF" transform="translate(109,89)"/>
<path d="M0 0 C5.01113235 1.4317521 6.94469549 3.98445693 10 8 C7 8 7 8 5.17578125 6.50390625 C4.56089844 5.86324219 3.94601563 5.22257812 3.3125 4.5625 C2.68988281 3.92441406 2.06726563 3.28632812 1.42578125 2.62890625 C0 1 0 1 0 0 Z " fill="#EEEEE7" transform="translate(128,53)"/>
<path d="M0 0 C7.425 0.99 7.425 0.99 15 2 C15 2.33 15 2.66 15 3 C12.87506859 3.02693575 10.75004088 3.04636628 8.625 3.0625 C7.44164063 3.07410156 6.25828125 3.08570313 5.0390625 3.09765625 C2 3 2 3 0 2 C0 1.34 0 0.68 0 0 Z " fill="#A3A489" transform="translate(98,128)"/>
<path d="M0 0 C-1.29299694 2.88437779 -2.65941363 4.87219421 -5 7 C-5.99 6.67 -6.98 6.34 -8 6 C-3.375 0 -3.375 0 0 0 Z " fill="#9C9C81" transform="translate(145,129)"/>
<path d="M0 0 C0.33 0.99 0.66 1.98 1 3 C-1.3125 5.5 -1.3125 5.5 -4 8 C-4.99 8 -5.98 8 -7 8 C-7 7.34 -7 6.68 -7 6 C-5.46875 4.4921875 -5.46875 4.4921875 -3.5 2.875 C-2.8503125 2.33617188 -2.200625 1.79734375 -1.53125 1.2421875 C-1.0259375 0.83226563 -0.520625 0.42234375 0 0 Z " fill="#A0A083" transform="translate(124,111)"/>
<path d="M0 0 C0.33 0.99 0.66 1.98 1 3 C1.66 3 2.32 3 3 3 C3.33 2.34 3.66 1.68 4 1 C4.28875 1.804375 4.5775 2.60875 4.875 3.4375 C5.73262568 6.1326468 5.73262568 6.1326468 8 7 C8 7.66 8 8.32 8 9 C6.68 8.67 5.36 8.34 4 8 C3.67 6.68 3.34 5.36 3 4 C2.01 4 1.02 4 0 4 C0 2.68 0 1.36 0 0 Z " fill="#EAEBE4" transform="translate(105,88)"/>
<path d="M0 0 C0.99 0.33 1.98 0.66 3 1 C3 1.66 3 2.32 3 3 C1.46875 4.2890625 1.46875 4.2890625 -0.5 5.625 C-1.1496875 6.07101563 -1.799375 6.51703125 -2.46875 6.9765625 C-2.9740625 7.31429687 -3.479375 7.65203125 -4 8 C-3.50168276 4.31245243 -2.89932357 2.39509338 0 0 Z " fill="#E0E0D1" transform="translate(96,54)"/>
<path d="M0 0 C3.81684226 1.55500981 6.19195732 4.03595495 9 7 C2.29787234 5.06382979 2.29787234 5.06382979 0 2 C0 1.34 0 0.68 0 0 Z " fill="#969579" transform="translate(99,103)"/>
<path d="M0 0 C0.66 0 1.32 0 2 0 C2.05399736 1.45792884 2.09279177 2.91642712 2.125 4.375 C2.14820313 5.18710938 2.17140625 5.99921875 2.1953125 6.8359375 C2 9 2 9 0 11 C-1.35015859 6.94952424 -0.62084998 4.2079832 0 0 Z " fill="#8E8E6F" transform="translate(146,91)"/>
<path d="M0 0 C0.66 0.33 1.32 0.66 2 1 C0.54744301 4.82946843 -1.42895561 6.12050295 -5 8 C-4.45773019 4.20411134 -2.79872437 2.52788007 0 0 Z " fill="#9F9E83" transform="translate(101,69)"/>
<path d="M0 0 C1.47968023 2.95936046 0.84835797 4.86760134 0 8 C-2.0625 9.375 -2.0625 9.375 -4 10 C-3.43454163 6.04179141 -2.19097652 3.3340947 0 0 Z " fill="#A7A78F" transform="translate(66,54)"/>
<path d="M0 0 C1.051875 0.474375 2.10375 0.94875 3.1875 1.4375 C6.10175851 2.69323741 8.84746914 3.52234381 12 4 C12 4.33 12 4.66 12 5 C10.20759337 4.88610125 8.41605165 4.75852313 6.625 4.625 C5.12839844 4.52058594 5.12839844 4.52058594 3.6015625 4.4140625 C1 4 1 4 -1 2 C-0.67 1.34 -0.34 0.68 0 0 Z " fill="#E2E2D7" transform="translate(100,118)"/>
<path d="M0 0 C0.33 0.99 0.66 1.98 1 3 C1.66 2.67 2.32 2.34 3 2 C1.84826645 4.46800047 0.95216435 6.04783565 -1 8 C-1.66 8 -2.32 8 -3 8 C-2.45276317 4.62537285 -1.9451 2.91765 0 0 Z " fill="#B4B49D" transform="translate(100,77)"/>
<path d="M0 0 C2.46800047 1.15173355 4.04783565 2.04783565 6 4 C5.625 6.125 5.625 6.125 5 8 C0 2.25 0 2.25 0 0 Z " fill="#E8E8E0" transform="translate(123,73)"/>
<path d="M0 0 C-0.99 1.485 -0.99 1.485 -2 3 C-2.66 2.34 -3.32 1.68 -4 1 C-6.43252661 0.53837573 -6.43252661 0.53837573 -9.125 0.375 C-10.03507812 0.30023438 -10.94515625 0.22546875 -11.8828125 0.1484375 C-12.58148438 0.09945312 -13.28015625 0.05046875 -14 0 C-14 -0.33 -14 -0.66 -14 -1 C-4.58997722 -2.51708428 -4.58997722 -2.51708428 0 0 Z " fill="#B7B59F" transform="translate(119,71)"/>
<path d="M0 0 C0.99 0 1.98 0 3 0 C1.8141763 3.37503669 0.72426311 5.64722731 -2 8 C-1.125 1.125 -1.125 1.125 0 0 Z " fill="#888763" transform="translate(81,63)"/>
<path d="M0 0 C3.375 -0.125 3.375 -0.125 7 0 C7.66 0.66 8.32 1.32 9 2 C5.37 2.66 1.74 3.32 -2 4 C-1.34 2.68 -0.68 1.36 0 0 Z " fill="#8B8A68" transform="translate(103,62)"/>
<path d="M0 0 C2.5 2.3125 2.5 2.3125 5 5 C5 5.99 5 6.98 5 8 C2.5 6.25 2.5 6.25 0 4 C0 2.68 0 1.36 0 0 Z " fill="#99987D" transform="translate(81,123)"/>
<path d="M0 0 C2.40072955 2.88087546 4.47291037 5.56404834 6 9 C5.01 9 4.02 9 3 9 C1.68 6.36 0.36 3.72 -1 1 C-0.67 0.67 -0.34 0.34 0 0 Z " fill="#B6B6A1" transform="translate(83,111)"/>
<path d="M0 0 C0.66 0 1.32 0 2 0 C3.35439668 2.70879335 3.06501451 5.00933268 3 8 C2.34 8 1.68 8 1 8 C-0.35439668 5.29120665 -0.06501451 2.99066732 0 0 Z " fill="#898969" transform="translate(54,94)"/>
<path d="M0 0 C1.21236328 0.02707031 1.21236328 0.02707031 2.44921875 0.0546875 C3.37154297 0.08949219 3.37154297 0.08949219 4.3125 0.125 C4.3125 0.455 4.3125 0.785 4.3125 1.125 C3.219375 1.2075 2.12625 1.29 1 1.375 C-2.72026664 1.76189209 -2.72026664 1.76189209 -4.625 4.1875 C-4.975625 4.826875 -5.32625 5.46625 -5.6875 6.125 C-5.6875 5.135 -5.6875 4.145 -5.6875 3.125 C-6.3475 2.795 -7.0075 2.465 -7.6875 2.125 C-4.48369983 -0.01086678 -3.66810033 -0.10632175 0 0 Z " fill="#A8A88E" transform="translate(105.6875,60.875)"/>
<path d="M0 0 C0 2.97 0 5.94 0 9 C-0.66 8.67 -1.32 8.34 -2 8 C-2.40729228 5.67843403 -2.74438677 3.3431213 -3 1 C-1 0 -1 0 0 0 Z " fill="#898869" transform="translate(56,58)"/>
<path d="M0 0 C0.66 0.33 1.32 0.66 2 1 C-0.31 3.64 -2.62 6.28 -5 9 C-5.99 8.34 -6.98 7.68 -8 7 C-5.36 4.69 -2.72 2.38 0 0 Z " fill="#D8D8C6" transform="translate(97,51)"/>
<path d="M0 0 C1.39195915 4.17587745 -0.17676781 6.13474776 -2 10 C-2.66 9.67 -3.32 9.34 -4 9 C-2.94124926 5.59687262 -1.99097846 2.98646769 0 0 Z " fill="#ACAA93" transform="translate(133,103)"/>
<path d="M0 0 C-0.66 0 -1.32 0 -2 0 C-2 0.99 -2 1.98 -2 3 C-6.455 2.01 -6.455 2.01 -11 1 C-11 0.67 -11 0.34 -11 0 C-3.57142857 -1.28571429 -3.57142857 -1.28571429 0 0 Z " fill="#A09F83" transform="translate(116,76)"/>
<path d="M0 0 C0.33 0.66 0.66 1.32 1 2 C1.66 2 2.32 2 3 2 C2.39816251 4.02045442 1.72693904 6.02111039 1 8 C0.01 8.495 0.01 8.495 -1 9 C-0.67 6.03 -0.34 3.06 0 0 Z " fill="#B2B29C" transform="translate(140,115)"/>
<path d="M0 0 C4 4.625 4 4.625 4 8 C3.01 7.67 2.02 7.34 1 7 C0.67 4.69 0.34 2.38 0 0 Z " fill="#8A8968" transform="translate(61,113)"/>
<path d="M0 0 C0.83583327 2.37607949 1.1842383 3.54449627 0.22265625 5.921875 C-0.8515625 7.61458333 -1.92578125 9.30729167 -3 11 C-3.33 10.34 -3.66 9.68 -4 9 C-3.22265625 6.8359375 -3.22265625 6.8359375 -2.0625 4.375 C-1.68222656 3.55773437 -1.30195313 2.74046875 -0.91015625 1.8984375 C-0.60980469 1.27195312 -0.30945313 0.64546875 0 0 Z " fill="#EBEBE4" transform="translate(136,110)"/>
<path d="M0 0 C2.52259061 1.97420135 2.9929808 2.96745642 3.6875 6.1875 C3.790625 7.115625 3.89375 8.04375 4 9 C3.34 9 2.68 9 2 9 C0.50178941 5.62902617 0 3.79557881 0 0 Z " fill="#888767" transform="translate(57,103)"/>
<path d="M0 0 C3.67230705 3.07999946 4.56802365 5.2482602 5 10 C2.59927045 7.11912454 0.52708963 4.43595166 -1 1 C-0.67 0.67 -0.34 0.34 0 0 Z " fill="#BCBCA9" transform="translate(129,68)"/>
<path d="M0 0 C2 1.375 2 1.375 4 3 C4 3.66 4 4.32 4 5 C2 6.625 2 6.625 0 8 C-0.79953138 4.71303767 -1.09658936 3.28976808 0 0 Z " fill="#A3A28A" transform="translate(56,64)"/>
<path d="M0 0 C1.9375 0.75 1.9375 0.75 4 2 C4.75 4.125 4.75 4.125 5 6 C4.01 6.495 4.01 6.495 3 7 C0 3.375 0 3.375 0 0 Z " fill="#E1E2D6" transform="translate(137,61)"/>
<path d="M0 0 C2.475 0.495 2.475 0.495 5 1 C5.33 2.65 5.66 4.3 6 6 C3.97945196 4.35830472 1.97956942 2.69088222 0 1 C0 0.67 0 0.34 0 0 Z " fill="#97977C" transform="translate(134,40)"/>
<path d="M0 0 C0.99 0.495 0.99 0.495 2 1 C2.75 3.375 2.75 3.375 3 6 C2.34 6.99 1.68 7.98 1 9 C-0.4783226 6.04335481 -0.06032783 3.25770263 0 0 Z " fill="#DBDBD0" transform="translate(74,106)"/>
<path d="M0 0 C0.66 0 1.32 0 2 0 C2.33 3.3 2.66 6.6 3 10 C1 8 1 8 0.875 5.375 C0.91625 4.59125 0.9575 3.8075 1 3 C0.34 3 -0.32 3 -1 3 C-0.67 2.01 -0.34 1.02 0 0 Z " fill="#B1B29C" transform="translate(46,92)"/>
<path d="M0 0 C0.99 0.33 1.98 0.66 3 1 C-1.75 5.875 -1.75 5.875 -4 7 C-3.43628586 3.73045798 -2.50037734 2.17424117 0 0 Z " fill="#F6F7F2" transform="translate(105,78)"/>
<path d="M0 0 C2.67927341 4.01891012 2.15601248 6.24161923 2 11 C0.35365714 8.03658286 -0.55681086 5.36823744 -1 2 C-0.67 1.34 -0.34 0.68 0 0 Z " fill="#B0B197" transform="translate(142,72)"/>
<path d="M0 0 C0.66 0.33 1.32 0.66 2 1 C0.25 4.875 0.25 4.875 -2 6 C-2.66 5.34 -3.32 4.68 -4 4 C-2.68 2.68 -1.36 1.36 0 0 Z " fill="#E3E2DA" transform="translate(96,61)"/>
<path d="M0 0 C2.91517292 1.07401108 4.77810176 1.77810176 7 4 C3.37673261 5.2077558 2.35853631 4.54311128 -1 3 C-0.67 2.01 -0.34 1.02 0 0 Z " fill="#DFDED3" transform="translate(115,44)"/>
</svg>
